<svg id="Layer_5" enable-background="new 0 0 64 64" height="512" viewBox="0 0 64 64" width="512" xmlns="http://www.w3.org/2000/svg"><g><g><g><path d="m17 42h12v16h-12z" fill="#aab2bd"/></g><g><path d="m29 58v2c0 1.1-.9 2-2 2h-8c-1.1 0-2-.9-2-2v-2z" fill="#b27946"/></g><g><path d="m27 38c1.1 0 2 .9 2 2v2h-12v-2c0-1.1.9-2 2-2h2 4z" fill="#b27946"/></g><g><path d="m27 18v18c0 1.1-.9 2-2 2h-4c-1.1 0-2-.9-2-2v-18z" fill="#cf9e76"/></g><g><path d="m29.41 4.59c-.36-.37-.86-.59-1.41-.59h-10c-.55 0-1.05.22-1.41.59-.37.36-.59.86-.59 1.41v10c0 .55.22 1.05.59 1.41.36.37.86.59 1.41.59h1 8 1c.55 0 1.05-.22 1.41-.59.37-.36.59-.86.59-1.41v-10c0-.55-.22-1.05-.59-1.41z" fill="#fcd770"/></g><g><path d="m62 2v12.68c0 10.07-7.11 18.74-16.98 20.72l-3.02.6.74-2.21c.23-.7.43-1.41.6-2.13l1.03-.25c8.01-2 13.63-9.2 13.63-17.46v-11.22c.69-.16 1.36-.41 2-.73z" fill="#e6e9ed"/></g><g><path d="m16 6v10l-8.08-2.43c-1.27-.38-2.59-.57-3.92-.57l-2-3v-1c2.65 0 5.29-.39 7.83-1.15z" fill="#ccd1d9"/></g><g><path d="m58 2.73v11.22c0 8.26-5.62 15.46-13.63 17.46l-1.03.25c.44-1.85.66-3.75.66-5.66 0-2.65-.43-5.28-1.26-7.79-.44-1.32-1.68-2.21-3.06-2.21h-9.68v-10h9.34c1.82 0 3.59-.36 5.23-1.04s3.15-1.68 4.43-2.96h2c1.32.66 2.77 1 4.24 1h.52c.76 0 1.51-.09 2.24-.27z" fill="#ccd1d9"/></g></g><g><path d="m59.764 1-.211.105c-1.17.586-2.481.895-3.789.895h-.527c-1.309 0-2.619-.309-3.789-.895l-.212-.105h-2.65l-.293.293c-2.391 2.391-5.569 3.707-8.95 3.707h-8.527c-.414-1.161-1.514-2-2.816-2h-10c-1.383 0-2.539.946-2.885 2.221l-5.571 1.672c-2.448.734-4.986 1.107-7.544 1.107h-1v2.303l2.465 3.697h.535c1.229 0 2.45.179 3.629.533l7.487 2.246c.345 1.275 1.501 2.221 2.884 2.221v17c0 .395.081.77.22 1.116-1.275.345-2.22 1.501-2.22 2.884v20c0 1.654 1.346 3 3 3h8c1.654 0 3-1.346 3-3v-20c0-1.383-.945-2.539-2.22-2.884.139-.346.22-.721.22-1.116v-17c1.302 0 2.402-.839 2.816-2h8.86c.959 0 1.808.611 2.111 1.521.805 2.416 1.213 4.932 1.213 7.479s-.408 5.063-1.213 7.479l-1.281 3.84 4.71-.941c10.305-2.062 17.784-11.186 17.784-21.695v-13.683zm-42.764 5.414 4.586 4.586-4.586 4.586zm12 0v9.172l-4.586-4.586zm-6 3.172-4.586-4.586h9.172zm0 2.828 4.586 4.586h-9.172zm-18.458-.404-1.356-2.035c2.35-.099 4.677-.49 6.933-1.167l4.881-1.464v7.312l-6.797-2.039c-1.192-.358-2.421-.561-3.661-.607zm13.458 36.372v-2.764l2.764 1.382zm5-.264 3.764 1.882-3.764 1.882-3.764-1.882zm-2.236 4.882-2.764 1.382v-2.764zm-2.764 3.618 5-2.5 5 2.5v.382h-10zm7.236-3.618 2.764-1.382v2.764zm0-6 2.764-1.382v2.764zm2.764-3.618-5 2.5-5-2.5v-.382h10zm-1 17.618h-8c-.552 0-1-.448-1-1v-1h10v1c0 .552-.448 1-1 1zm1-20h-10v-1c0-.552.448-1 1-1h2 4 2c.552 0 1 .448 1 1zm-2-5c0 .552-.448 1-1 1h-4c-.552 0-1-.448-1-1v-17h6zm13.676-21h-8.676v-8h8.343c3.774 0 7.331-1.417 10.063-4h1.364c1.391.655 2.929 1 4.466 1h.527c.414 0 .827-.029 1.237-.078v10.024c0 7.637-5.062 14.273-12.367 16.342.24-1.413.367-2.846.367-4.288 0-2.763-.442-5.492-1.316-8.111-.577-1.728-2.187-2.889-4.008-2.889zm21.324-.317c0 9.559-6.804 17.858-16.177 19.733l-1.329.266.189-.57c.178-.534.326-1.076.469-1.619l.455-.114c8.475-2.119 14.393-9.699 14.393-18.433v-10.468c.419-.136.831-.29 1.229-.478h.771z"/><circle cx="23" cy="7" r="1"/><circle cx="23" cy="15" r="1"/><circle cx="27" cy="11" r="1"/><circle cx="19" cy="11" r="1"/><circle cx="23" cy="34" r="1"/><circle cx="23" cy="22" r="1"/><circle cx="23" cy="26" r="1"/><circle cx="23" cy="30" r="1"/></g></g></svg>