<svg id="Layer_1" enable-background="new 0 0 512.002 512.002" height="512" viewBox="0 0 512.002 512.002" width="512" xmlns="http://www.w3.org/2000/svg"><g><g clip-rule="evenodd" fill-rule="evenodd"><path d="m112.275 107.582c12.665-22.37 29.873-40.724 51.546-53.953-16.294-10.457-30.895-23.751-43.079-39.53-5.075-6.977-16.248-4.634-17.87 4.032-1.785 9.462-2.738 19.41-2.738 29.039-.001 21.421 4.321 41.833 12.141 60.412z" fill="#ffc144"/><path d="m163.82 53.628c-21.673 13.229-38.881 31.583-51.546 53.953-4.765 8.416-8.887 17.4-12.361 26.893h126.08v-102.426c-23.689 3.352-44.427 10.748-62.173 21.58z" fill="#ffda8f"/><path d="m225.994 32.048v102.426h60v-102.426-12.048c0-5.5-4.5-10-10-10h-40c-5.5 0-10 4.5-10 10z" fill="#ffc144"/><path d="m285.994 32.048v102.426h126.08c-3.475-9.493-7.596-18.478-12.361-26.894-12.665-22.37-29.873-40.724-51.545-53.953-17.746-10.831-38.484-18.227-62.174-21.579z" fill="#ffda8f"/><path d="m348.168 53.628c21.673 13.229 38.88 31.583 51.546 53.953 7.819-18.579 12.142-38.99 12.142-60.411 0-3.016-1.6-29.267-2.744-29.038-1.556-8.321-12.378-11.137-17.69-4.259-12.218 15.876-26.882 29.248-43.254 39.755z" fill="#ffc144"/><path d="m412.074 134.475h-126.08-60-126.08-3.919c-5.5 0-10 4.5-10 10v51.273 8.727c0 5.5 4.502 10 10 10h.041 47.37 225.206 47.342.04c5.499 0 10-4.501 10-10v-8.727-51.273c0-5.498-4.499-10-10-10z" fill="#ffc144"/><path d="m425.993 204.475c0 5.498-4.501 10-10 10h-.04c.027 1.834.041 3.676.041 5.528v16.007c.554 12.69.295 25.714-.66 38.464h.66c22 0 40-17.999 40-40 0-18.551-12.798-34.257-30.001-38.726z" fill="#ffdcd5"/><path d="m415.994 236.009v-16.007c0-1.852-.014-3.694-.041-5.528h-47.342c2.794 5.289 4.623 9.832 5.056 12.813 1.082 7.449-12.59 38.787-15.361 48.356-7.542 23.959-30.049 39.28-73.32 14.297 0 0-11.962-7.765-28.978-7.765s-28.978 7.765-28.978 7.765c-26.98 15.577-61.689 22.65-73.32-14.297-5.538-19.124-16.553-40.153-15.361-48.356.433-2.981 2.262-7.524 5.056-12.813h-47.37c-.027 1.834-.041 3.676-.041 5.528v16.007c-.554 12.69-.295 25.714.66 38.464 5.257 70.207 31.611 132.099 59.47 83.969-.831 6.262 1.373 15.502 5.485 25.056 6.54 15.199 17.906 31.195 29.547 37.266 11.673 6.087 23.622 2.196 31.264-22.48 0 11.745 6.474 43.331 33.574 43.331 27.101 0 33.574-31.585 33.574-43.331 15.264 49.29 47.718 15.648 60.814-14.793 4.109-9.552 6.313-18.788 5.482-25.049 27.859 48.13 54.213-13.762 59.47-83.969.955-12.749 1.214-25.774.66-38.464z" fill="#8690af"/><g fill="#ffdcd5"><path d="m358.307 275.644c2.771-9.569 16.443-40.907 15.361-48.356-.433-2.981-2.262-7.524-5.056-12.813h-225.206c-2.794 5.289-4.624 9.832-5.056 12.813-1.191 8.203 9.823 29.232 15.361 48.356 11.631 36.947 46.34 29.874 73.32 14.297 0 0 11.962-7.765 28.978-7.765s28.978 7.765 28.978 7.765c43.271 24.982 65.778 9.661 73.32-14.297z"/><path d="m96.654 274.474c-.955-12.75-1.214-25.775-.66-38.464v-16.007c0-1.852.014-3.694.041-5.528h-.041c-5.498 0-10-4.5-10-10v-8.727c-17.203 4.469-30.001 20.175-30.001 38.726 0 22.001 18 40 40 40z"/><path d="m129.467 401.358c-28.451 18.948-52.754 44.331-70.603 74.811-7.366 10.79.257 25.833 13.657 25.833l52.882-.005c26.495-32.754 19.994-73.742 4.064-100.639z"/></g><path d="m129.467 401.358c15.93 26.897 22.43 67.885-4.065 100.639l182.497-.019c-55-7.278-103.887-42.344-116.744-81.213-11.641-6.071-23.007-22.066-29.547-37.266-11.177 5.082-21.926 11.056-32.141 17.859z" fill="#ffc144"/><path d="m191.156 420.765c12.857 38.869 61.744 73.935 116.744 81.213l131.584-.014c12.511.013 20.689-13.664 14.267-24.751-24.253-41.924-60.689-74.32-103.368-93.721-13.096 30.441-45.55 64.084-60.814 14.793 0 11.745-6.474 43.331-33.574 43.331-27.101 0-33.574-31.585-33.574-43.331-7.643 24.676-19.593 28.567-31.265 22.48z" fill="#ffdcd5"/></g><g><path d="m462.407 472.206c-20.971-36.251-50.543-65.857-86.339-86.683 2.196-.027 4.248-.379 6.103-.921 23.905-6.982 37.714-54.027 42.333-100.867 23.528-4.054 41.489-24.592 41.489-49.26 0-20.092-12.01-37.948-30.001-45.809v-44.191c0-9.995-7.377-18.276-16.967-19.745-2.5-6.186-5.268-12.119-8.286-17.808 11.126-28.783 13.981-60.017 8.206-90.632-1.49-7.956-7.318-14.004-15.212-15.784-7.753-1.747-15.772 1.222-20.475 7.574-10.11 13.073-22.028 24.407-35.476 33.768-15.574-8.642-32.893-14.753-51.79-18.273v-3.575c0-11.028-8.972-20-20-20h-40c-11.028 0-20 8.972-20 20v3.575c-18.897 3.521-36.217 9.63-51.791 18.272-13.448-9.36-25.365-20.695-35.474-33.767-4.702-6.352-12.719-9.324-20.475-7.574-7.894 1.78-13.722 7.829-15.21 15.771-5.777 30.627-2.923 61.861 8.203 90.644-3.017 5.69-5.786 11.623-8.286 17.809-9.59 1.469-16.966 9.75-16.966 19.745v44.191c-17.991 7.861-30.001 25.717-30.001 45.809 0 24.668 17.961 45.207 41.489 49.26 4.619 46.839 18.428 93.885 42.333 100.867 1.863.544 3.923.896 6.128.921-35.332 20.561-64.628 49.697-85.553 85.326-5.346 8.077-5.845 18.402-1.282 27.042 4.597 8.704 13.568 14.111 23.413 14.111l366.952-.038h.027c9.55 0 18.117-4.967 22.921-13.291 4.789-8.292 4.782-18.189-.013-26.467zm-16.413-237.732c0 13.046-8.374 24.168-20.027 28.289.383-9.365.391-18.47.027-26.97v-14.024c4.073-2.365 7.229-6.12 8.829-10.617 6.893 5.568 11.171 14.046 11.171 23.322zm-46.832-214.264c.038-.05.09-.117.137-.179 4.1 21.774 3.238 43.886-2.399 64.921-7.374-9.907-15.724-18.797-25.038-26.596-2.001-1.676-4.056-3.278-6.136-4.845 12.507-9.562 23.719-20.717 33.436-33.301zm-2.031 104.265h-101.137v-80.53c46.606 9.73 81.212 37.312 101.137 80.53zm-121.137-104.475v104.475h-40v-104.475zm-60 104.475h-5.007c-5.522 0-10 4.477-10 10s4.478 10 10 10h205.006v60h-.037-319.961v-60h24.992c5.522 0 10-4.477 10-10s-4.478-10-10-10h-6.131c19.926-43.219 54.532-70.799 101.138-80.529zm147.727 103.971c-.265 4.604-6.58 21.302-9.642 29.395-2.325 6.148-4.337 11.467-5.342 14.898-2.062 6.497-6.357 14.91-15.139 18.328-10.39 4.046-25.424.688-43.471-9.705-2.223-1.37-15.709-9.186-34.119-9.186s-31.896 7.815-34.119 9.186c-17.598 10.13-33.638 13.622-44.03 9.577-6.763-2.632-11.532-8.584-14.578-18.195-2.312-7.954-5.491-16.158-8.299-23.401-2.881-7.432-6.82-17.594-6.724-20.7.112-.66.523-2.045 1.426-4.168h212.648c.82 1.93 1.235 3.252 1.389 3.971zm-251.032-208.417c.045.061.091.121.137.181 9.717 12.584 20.929 23.739 33.436 33.3-2.065 1.556-4.105 3.146-6.093 4.809-9.332 7.807-17.697 16.709-25.082 26.631-5.635-21.035-6.498-43.148-2.398-64.921zm-46.695 214.445c0-9.277 4.278-17.754 11.171-23.323 1.6 4.497 4.756 8.252 8.829 10.617v14.024c-.365 8.5-.356 17.606.027 26.97-11.653-4.12-20.027-15.242-20.027-28.288zm69.429 130.929c-3.846-1.123-13.161-11.247-20.894-41.521-3.933-15.398-6.62-32.723-7.921-50.324-.004-.045-.005-.09-.01-.135-.911-12.382-1.141-24.898-.614-36.978.007-.145.01-.291.01-.436v-11.535h22.71c-.098.471-.187.935-.251 1.376-1.047 7.207 2.146 15.927 7.881 30.721 2.803 7.231 5.701 14.708 7.771 21.854.021.074.044.147.066.221 4.915 15.61 13.809 26.017 26.436 30.931 22.047 8.58 47.946-3.195 61.424-10.977.15-.087.244-.143.39-.237.099-.062 9.976-6.188 23.589-6.188 13.612 0 23.489 6.126 23.533 6.152.146.095.294.186.444.272 16.323 9.425 31.054 14.153 44.014 14.153 6.003 0 11.628-1.016 16.853-3.049 12.836-4.995 22.17-15.735 26.993-31.059.022-.073.045-.147.066-.22.771-2.66 2.764-7.93 4.874-13.509 8.383-22.163 11.733-32.49 10.777-39.068-.064-.441-.153-.903-.251-1.374h22.681v11.535c0 .146.003.291.01.436.527 12.081.297 24.596-.614 36.978-.005.045-.006.09-.01.135-1.302 17.601-3.988 34.926-7.921 50.324-7.732 30.274-17.048 40.397-20.894 41.521-2.174.64-6.749-2.817-12.047-11.97-2.39-4.13-7.364-5.992-11.879-4.456-4.516 1.539-7.316 6.053-6.688 10.782 1.371 10.324-5.649 22.967-10.76 31.45-4.746 7.876-12.407 19.769-22.2 21.92-6.81 1.492-11.612-10.512-13.87-17.802-1.463-4.723-6.153-7.669-11.049-6.93-4.89.74-8.504 4.942-8.504 9.888 0 3.864-1.138 13.301-5.443 21.356-4.308 8.058-10.238 11.975-18.131 11.975s-13.823-3.917-18.131-11.975c-4.306-8.055-5.443-17.492-5.443-21.356 0-4.945-3.614-9.148-8.504-9.888-4.901-.736-9.585 2.207-11.049 6.93-2.258 7.289-7.058 19.298-13.87 17.802-10.005-2.197-17.824-14.505-22.593-22.572-4.944-8.364-11.71-20.685-10.367-30.798.628-4.729-2.173-9.243-6.688-10.782-4.515-1.538-9.489.327-11.879 4.456-5.298 9.155-9.868 12.61-12.047 11.971zm21.564 31.426c.729 1.35 1.467 2.664 2.207 3.915 4.593 7.76 12.912 19.767 23.79 26.833 9.802 25.551 32.811 48.639 62.144 64.408l-101.368.01c15.249-30.136 10.244-63.172-1.143-87.173 4.671-2.834 9.464-5.499 14.37-7.993zm-84.466 95.173c-3.523 0-5.179-2.414-5.727-3.451-.438-.828-1.707-3.762.328-6.744.131-.19.254-.386.37-.585 15.039-25.68 34.815-47.691 58.295-65.103 9.408 21.577 12.302 50.962-5.37 75.878zm372.58-3.325c-.571.989-2.258 3.288-5.609 3.288-.003 0-.005 0-.008 0l-130.852.013c-42.853-5.842-83.12-30.25-101.062-59.667 3.581-1.058 7.328-3.063 10.945-6.567 6.431 13.971 18.332 25.872 37.48 25.872 19.146 0 31.05-11.902 37.48-25.872 8.507 8.24 17.744 8.251 23.807 6.919 16.623-3.65 29.386-21.566 35.514-31.92.742-1.253 1.481-2.571 2.211-3.924 37.75 19.19 68.77 48.548 90.091 85.405 1.684 2.909.563 5.482.003 6.453z"/><ellipse cx="305.996" cy="254.475" rx="15" ry="20"/><ellipse cx="205.992" cy="254.475" rx="15" ry="20"/><path d="m255.994 351.978c18.072 0 33.96-12.191 38.637-29.647 1.43-5.335-1.736-10.818-7.071-12.247-5.337-1.431-10.818 1.737-12.247 7.071-2.339 8.728-10.282 14.823-19.318 14.823s-16.979-6.096-19.318-14.823c-1.43-5.334-6.908-8.502-12.247-7.071-5.335 1.429-8.501 6.912-7.071 12.247 4.675 17.455 20.563 29.647 38.635 29.647z"/><path d="m255.99 184.475h.008c5.522 0 9.996-4.477 9.996-10s-4.481-10-10.004-10-10 4.477-10 10 4.478 10 10 10z"/><path d="m210.99 184.475h.008c5.522 0 9.996-4.477 9.996-10s-4.481-10-10.004-10-10 4.477-10 10 4.478 10 10 10z"/><path d="m165.991 164.475c-5.522 0-10 4.477-10 10s4.478 10 10 10h.007c5.522 0 9.997-4.477 9.997-10s-4.481-10-10.004-10z"/><path d="m120.991 164.475c-5.522 0-10 4.477-10 10s4.478 10 10 10h.008c5.522 0 9.996-4.477 9.996-10s-4.481-10-10.004-10z"/><path d="m300.99 184.475h.007c5.522 0 9.997-4.477 9.997-10s-4.481-10-10.004-10-10 4.477-10 10 4.478 10 10 10z"/><path d="m345.99 184.475h.007c5.522 0 9.997-4.477 9.997-10s-4.481-10-10.004-10-10 4.477-10 10 4.478 10 10 10z"/><path d="m390.989 184.475h.008c5.522 0 9.996-4.477 9.996-10s-4.481-10-10.004-10-10 4.477-10 10 4.478 10 10 10z"/><path d="m255.99 104.737h.008c5.522 0 9.996-4.477 9.996-10s-4.481-10-10.004-10-10 4.477-10 10 4.478 10 10 10z"/><path d="m255.99 59.738h.008c5.522 0 9.996-4.477 9.996-10s-4.481-10-10.004-10-10 4.477-10 10 4.478 10 10 10z"/><path d="m165.991 144.475c5.522 0 10-4.477 10-10s-4.478-10-10-10h-.008c-5.522 0-9.996 4.477-9.996 10s4.482 10 10.004 10z"/></g></g></svg>