<svg height="511pt" viewBox="-57 1 511 511.999" width="511pt" xmlns="http://www.w3.org/2000/svg"><path d="m331.453125 200.40625h-110.371094v-134.859375h-44.847656v134.859375h-110.367187v44.851562h110.367187v33.597657l22.425781 27.410156 22.421875-27.410156v-33.597657h110.371094zm0 0" fill="#ffe477"/><path d="m221.082031 86.132812c53.578125 10.453126 94.015625 57.636719 94.015625 114.273438h-94.015625zm-44.847656 0c-53.574219 10.453126-94.011719 57.636719-94.011719 114.273438h94.011719zm0 0" fill="#c6c5ca"/><path d="m387.507812 7.5c-10.421874 0-19.421874 7.4375-21.222656 17.699219-3.492187 19.914062-12.929687 38.992187-28.3125 54.371093-18.570312 18.570313-42.527344 28.472657-66.839844 29.710938 16.949219 13.496094 30.042969 31.613281 37.378907 52.453125 13.667969-6.859375 26.484375-15.992187 37.890625-27.398437 34.539062-34.539063 48.238281-82.027344 41.105468-126.835938zm0 0" fill="#c6c5ca"/><path d="m9.8125 7.5c10.421875 0 19.417969 7.4375 21.21875 17.699219 3.496094 19.914062 12.933594 38.992187 28.3125 54.371093 18.570312 18.570313 42.527344 28.472657 66.839844 29.710938-16.945313 13.496094-30.042969 31.613281-37.378906 52.453125-13.664063-6.859375-26.484376-15.992187-37.886719-27.398437-34.539063-34.539063-48.242188-82.027344-41.105469-126.835938zm0 0" fill="#c6c5ca"/><path d="m221.082031 245.257812v33.597657l-22.421875 27.410156-22.425781-27.410156v-33.597657h-89.484375v92.394532c27.445312 27.445312 42.832031 42.832031 70.277344 70.277344l41.632812-30 41.632813 30c27.445312-27.445313 42.832031-42.832032 70.277343-70.277344v-92.394532zm0 0" fill="#ffdaaa"/><path d="m194.613281 314.683594c3.507813 13.089844-4.257812 26.542968-17.347656 30.050781-13.085937 3.503906-79.890625 10.035156-83.398437-3.054687-3.503907-13.085938 57.613281-40.835938 70.699218-44.34375 13.089844-3.503907 26.542969 4.261718 30.046875 17.347656zm0 0" fill="#ff7956"/><path d="m202.703125 314.683594c-3.503906 13.089844 4.261719 26.542968 17.347656 30.050781 13.089844 3.503906 79.890625 10.035156 83.398438-3.054687 3.507812-13.085938-57.609375-40.835938-70.695313-44.34375-13.089844-3.503907-26.542968 4.261718-30.050781 17.347656zm0 0" fill="#ff7956"/><path d="m326.777344 245.257812h-16.207032v92.394532c-27.445312 27.445312-42.832031 42.832031-70.277343 70.277344l-41.632813-30-41.632812 30c-27.445313-27.445313-42.832032-42.832032-70.277344-70.277344v-92.394532h-16.207031c-15.585938 23.941407-24.648438 52.519532-24.648438 83.21875 0 84.371094 152.765625 174.808594 152.765625 174.808594s152.761719-90.4375 152.761719-174.808594c0-30.699218-9.0625-59.277343-24.644531-83.21875zm0 0" fill="#ff7956"/><path d="m65.867188 200.40625h30v44.851562h-30zm0 0" fill="#ffb655"/><path d="m176.234375 65.546875h30v134.859375h-30zm0 0" fill="#ffb655"/><path d="m206.234375 278.855469v-33.597657h-30v33.597657l22.425781 27.410156 15-18.335937zm0 0" fill="#ffb655"/><g fill="#898890"><path d="m176.234375 96.417969v-10.285157c-53.574219 10.453126-94.011719 57.636719-94.011719 114.273438h29.996094c0-45.445312 26.042969-84.808594 64.015625-103.988281zm0 0"/><path d="m221.085938 86.132812v114.273438h29.996093v-103.988281c-9.347656-4.71875-19.417969-8.21875-29.996093-10.285157zm0 0"/><path d="m301.132812 109.28125c24.3125-1.238281 48.273438-11.140625 66.839844-29.710938 8.402344-8.402343 15.027344-17.902343 19.882813-28.042968 2.085937-14.601563 1.972656-29.457032-.347657-44.027344-10.421874 0-19.417968 7.433594-21.21875 17.699219-3.496093 19.914062-12.933593 38.988281-28.3125 54.371093-18.570312 18.570313-42.527343 28.472657-66.84375 29.710938 16.949219 13.496094 30.042969 31.613281 37.382813 52.449219 8.207031-4.121094 16.109375-9.058594 23.585937-14.820313-7.585937-14.628906-18.179687-27.445312-30.96875-37.628906zm0 0"/><path d="m80.917969 134.335938c-23.308594-23.308594-37.125-52.511719-41.453125-82.808594-4.035156-8.425782-6.847656-17.289063-8.433594-26.328125-1.800781-10.265625-10.796875-17.699219-21.21875-17.699219-7.136719 44.808594 6.566406 92.296875 41.105469 126.835938 11.402343 11.402343 24.222656 20.535156 37.886719 27.394531 1.800781-5.113281 3.949218-10.0625 6.414062-14.820313-4.96875-3.828125-9.75-8.019531-14.300781-12.574218zm0 0"/></g><path d="m228.660156 306.265625 22.421875-27.410156v-33.597657h-30v33.597657l-7.421875 9.074219zm0 0" fill="#ff9478"/><path d="m228.660156 377.929688-15 10.808593 26.632813 19.191407 12.5625-12.5625zm0 0" fill="#ff9478"/><path d="m116.75 337.652344v-92.398438h-30v92.398438c27.445312 27.445312 42.832031 42.832031 70.277344 70.277344l17.433594-12.5625c-20.21875-20.21875-34.742188-34.742188-57.710938-57.714844zm0 0" fill="#ff9478"/><path d="m123.867188 341.679688c-2.933594-10.953126 39.394531-32.171876 60.949218-40.859376-5.707031-3.921874-13.035156-5.417968-20.25-3.484374-13.085937 3.507812-74.203125 31.257812-70.699218 44.34375 2.09375 7.808593 26.726562 8.636718 49.03125 7.285156-10.277344-.910156-17.90625-3.089844-19.03125-7.285156zm0 0" fill="#ff3f62"/><path d="m250.050781 344.734375c-13.085937-3.507813-20.855469-16.960937-17.347656-30.050781 1.574219-5.871094 5.152344-10.671875 9.796875-13.863282-4.199219-1.695312-7.613281-2.910156-9.746094-3.484374-13.089844-3.503907-26.542968 4.261718-30.050781 17.347656-3.503906 13.089844 4.261719 26.542968 17.347656 30.050781 8.894531 2.382813 42.582031 6.160156 64.367188 4.230469-15.074219-.910156-29.089844-2.816406-34.367188-4.230469zm0 0" fill="#ff3f62"/><path d="m270.292969 407.929688c27.445312-27.445313 42.832031-42.832032 70.277343-70.277344v-65.820313c-3.738281-9.351562-8.371093-18.242187-13.792968-26.574219h-16.207032v92.394532c-22.972656 22.972656-37.496093 37.496094-57.714843 57.714844zm0 0" fill="#ff3f62"/><path d="m75.894531 328.476562c0-20.015624 3.851563-39.128906 10.855469-56.644531v-26.574219h-16.207031c-15.585938 23.941407-24.648438 52.519532-24.648438 83.21875 0 84.371094 152.765625 174.808594 152.765625 174.808594s5.738282-3.402344 14.996094-9.496094c-38.488281-25.34375-137.761719-97.300781-137.761719-165.3125zm0 0" fill="#ff3f62"/><path d="m58.367188 252.757812h110.367187v28.773438l6.316406 7.71875c-4.101562-.53125-8.308593-.261719-12.425781.84375-7.617188 2.039062-26.804688 10.257812-43.230469 19.242188-11.429687 6.25-19.710937 11.75-25.144531 16.816406v-60.898438h-15v75.503906l76.984375 76.984376 42.425781-30.570313 42.425782 30.570313 76.984374-76.984376v-75.503906h-15v60.898438c-5.433593-5.066406-13.71875-10.566406-25.148437-16.816406-16.421875-8.984376-35.609375-17.203126-43.226563-19.242188-4.117187-1.105469-8.324218-1.378906-12.425781-.84375l6.316407-7.71875v-28.773438h110.367187v-59.851562h-110.367187v-134.859375h-59.851563v134.859375h-110.367187zm71.644531 67.902344c15.59375-8.234375 31.476562-14.734375 36.496093-16.078125 4.394532-1.175781 8.984376-.574219 12.925782 1.703125 3.941406 2.273438 6.761718 5.945313 7.9375 10.34375 1.179687 4.394532.574218 8.980469-1.703125 12.921875-2.273438 3.941407-5.945313 6.761719-10.34375 7.9375-5.015625 1.347657-22.023438 3.660157-39.644531 4.324219-21.203126.800781-30.027344-1.167969-33.375-2.390625 2.285156-2.734375 8.941406-8.851563 27.707031-18.761719zm109.488281 77.457032-40.839844-29.429688-40.84375 29.429688-41.347656-41.351563c21.851562 1.167969 53.027344-2.1875 62.738281-4.789063 8.265625-2.214843 15.171875-7.515624 19.453125-14.925781 4.277344 7.410157 11.1875 12.710938 19.449219 14.925781 9.863281 2.644532 41.097656 5.945313 62.742187 4.789063zm-8.691406-93.535157c5.019531 1.34375 20.90625 7.84375 36.5 16.078125 18.765625 9.910156 25.417968 16.027344 27.707031 18.761719-3.347656 1.222656-12.175781 3.191406-33.375 2.390625-17.621094-.664062-34.628906-2.976562-39.648437-4.324219-4.394532-1.175781-8.066407-3.996093-10.34375-7.9375-2.273438-3.9375-2.878907-8.527343-1.699219-12.921875 1.175781-4.398437 3.996093-8.070312 7.9375-10.34375 3.945312-2.28125 8.535156-2.878906 12.921875-1.703125zm-157.441406-96.675781h110.367187v-134.859375h29.851563v134.859375h110.367187v29.851562h-110.367187v38.421876l-14.925782 18.242187-14.925781-18.242187v-38.421876h-110.367187zm0 0"/><path d="m101.859375 215.996094h15v15h-15zm0 0"/><path d="m131.859375 215.996094h15v15h-15zm0 0"/><path d="m161.859375 215.996094h15v15h-15zm0 0"/><path d="m191.859375 215.996094h14.996094v15h-14.996094zm0 0"/><path d="m191.859375 245.996094h14.996094v15h-14.996094zm0 0"/><path d="m191.859375 185.996094h14.996094v15h-14.996094zm0 0"/><path d="m191.859375 156h14.996094v14.996094h-14.996094zm0 0"/><path d="m191.859375 126h14.996094v15h-14.996094zm0 0"/><path d="m191.859375 96h14.996094v15h-14.996094zm0 0"/><path d="m221.855469 215.996094h15v15h-15zm0 0"/><path d="m251.855469 215.996094h15v15h-15zm0 0"/><path d="m281.855469 215.996094h15v15h-15zm0 0"/><path d="m373.671875 26.496094c.78125-4.433594 3.617187-8.058594 7.449219-9.988282 4.964844 49.089844-16.546875 99.089844-59.417969 128.710938l8.527344 12.339844c49.929687-34.5 73.789062-94.039063 64.683593-151.238282l-1.007812-6.320312h-6.398438c-14.148437 0-26.179687 10.054688-28.609374 23.902344-6.300782 35.9375-32.464844 63.761718-65.078126 73.816406l4.417969 14.332031c37.777344-11.640625 68.117188-43.839843 75.433594-85.554687zm0 0"/><path d="m67.085938 157.558594 8.527343-12.339844c-42.875-29.628906-64.378906-79.628906-59.414062-128.710938 3.832031 1.929688 6.667969 5.554688 7.445312 9.988282 7.3125 41.6875 37.628907 73.902344 75.4375 85.554687l4.417969-14.332031c-32.640625-10.0625-58.78125-37.90625-65.082031-73.816406-2.429688-13.847656-14.460938-23.902344-28.605469-23.902344h-6.402344l-1.003906 6.320312c-9.117188 57.238282 14.785156 116.761719 64.679688 151.238282zm0 0"/><path d="m305.996094 181.6875 14.78125-2.558594c-7.335938-42.375-36.824219-78.457031-76.960938-94.167968l-5.464844 13.96875c35.277344 13.808593 61.199219 45.519531 67.644532 82.757812zm0 0"/><path d="m91.320312 181.6875c6.449219-37.238281 32.367188-68.949219 67.648438-82.757812l-5.46875-13.96875c-40.132812 15.710937-69.621094 51.792968-76.957031 94.167968zm0 0"/><path d="m330.933594 268.363281c8.617187 18.925781 12.988281 39.148438 12.988281 60.113281 0 71.914063-121.9375 151.457032-145.265625 166.007813-23.328125-14.542969-145.261719-94.039063-145.261719-166.007813 0-20.964843 4.371094-41.1875 12.988281-60.113281l-13.652343-6.214843c-9.511719 20.890624-14.335938 43.207031-14.335938 66.328124 0 70.628907 99.378907 147.476563 160.265625 183.523438 60.292969-35.699219 160.261719-112.617188 160.261719-183.523438 0-23.121093-4.824219-45.4375-14.335937-66.328124zm0 0"/><path d="m279.402344 177.464844c-1.542969-5.417969-3.648438-10.707032-6.257813-15.71875l13.308594-6.921875c3.074219 5.90625 5.554687 12.144531 7.375 18.527343zm-10.929688-23.621094c-2.542968-3.808594-5.414062-7.4375-8.542968-10.785156l10.960937-10.238282c3.683594 3.941407 7.066406 8.214844 10.0625 12.699219zm-15.164062-17.144531c-3.476563-2.992188-7.21875-5.710938-11.121094-8.085938l7.792969-12.816406c4.605469 2.800781 9.015625 6.007813 13.113281 9.535156zm0 0" fill="#fff"/><path d="m322.097656 137.550781-8.957031-12.027343c4.605469-3.429688 9.015625-7.242188 13.109375-11.339844 5.894531-5.894532 11.179688-12.453125 15.707031-19.488282l12.613281 8.113282c-5.101562 7.9375-11.0625 15.332031-17.714843 21.980468-4.605469 4.605469-9.570313 8.902344-14.757813 12.761719zm0 0" fill="#fff"/><path d="m202.773438 480-8.214844-12.550781c14.742187-9.648438 36.976562-25.199219 59.175781-44.472657 5.875-5.097656 11.464844-10.226562 16.617187-15.238281l10.457032 10.753907c-5.351563 5.207031-11.152344 10.527343-17.238282 15.8125-22.835937 19.824218-45.664062 35.789062-60.796874 45.695312zm85.261718-68.738281-10.769531-10.4375c3.492187-3.605469 6.824219-7.21875 9.90625-10.742188l11.292969 9.875c-3.25 3.71875-6.761719 7.519531-10.429688 11.304688zm17.058594-19.195313-11.683594-9.40625c3.144532-3.90625 6.050782-7.796875 8.636719-11.558594l12.363281 8.496094c-2.800781 4.074219-5.933594 8.269532-9.316406 12.46875zm0 0" fill="#fff"/></svg>