<svg id="Capa_1" enable-background="new 0 0 512 512" height="512" viewBox="0 0 512 512" width="512" xmlns="http://www.w3.org/2000/svg"><g><path d="m494.333 452c6.232-5.497 10.167-13.537 10.167-22.5 0-101.75-120-101.75-120-203.5v-30h-128.5l188.5 308.5h30c16.569 0 30-13.431 30-30 0-8.963-3.936-17.003-10.167-22.5z" fill="#ffd06a"/><path d="m474.5 474.5c0-8.963-3.936-17.003-10.167-22.5 6.232-5.497 10.167-13.537 10.167-22.5 0-97.535-82.542-101.591-89.381-191.381-.395-3.88-.619-7.904-.619-12.119v-30c0-70.969-57.531-128.5-128.5-128.5s-128.5 57.531-128.5 128.5v30c0 101.75-120 101.75-120 203.5 0 8.963 3.936 17.003 10.167 22.5-6.231 5.497-10.167 13.537-10.167 22.5 0 16.569 13.431 30 30 30h30l188.5-60 188.5 60c16.569 0 30-13.431 30-30z" fill="#ffe7b5"/><path d="m384.5 354.5h-30l60 150h30v-90c0-33.137-26.863-60-60-60z" fill="#ff9263"/><path d="m256 67.5c-70.969 0-128.5 57.532-128.5 128.5h257c0-70.968-57.531-128.5-128.5-128.5z" fill="#ffe7b5"/><path d="m354.5 354.5h-227c-33.137 0-60 26.863-60 60v90h60l45-15 83.5 15 83.5-15 45 15h30v-90c0-33.137-26.863-60-60-60z" fill="#ffae7e"/><path d="m172.5 444.5h-30l30 60h83.5c-11.774-34.886-44.71-60-83.5-60z" fill="#acd2f6"/><path d="m256 504.5h83.5l30-60h-30c-38.79 0-71.726 25.114-83.5 60z" fill="#95b0ed"/><path d="m384.5 212.5h-45v82c0 5.764 2.17 11.019 5.734 15-3.564 3.981-5.734 9.236-5.734 15s2.17 11.019 5.734 15c-3.564 3.981-5.734 9.236-5.734 15s2.17 11.019 5.734 15c-3.564 3.981-5.734 9.236-5.734 15s2.17 11.019 5.734 15c-3.564 3.981-5.734 9.236-5.734 15s2.17 11.019 5.734 15c-3.564 3.981-5.734 9.236-5.734 15s2.17 11.019 5.734 15c-3.564 3.981-5.734 9.236-5.734 15v30h45v-30c0-5.764-2.17-11.019-5.734-15 3.564-3.981 5.734-9.236 5.734-15s-2.17-11.019-5.734-15c3.564-3.981 5.734-9.236 5.734-15s-2.17-11.019-5.734-15c3.564-3.981 5.734-9.236 5.734-15s-2.17-11.019-5.734-15c3.564-3.981 5.734-9.236 5.734-15s-2.17-11.019-5.734-15c3.564-3.981 5.734-9.236 5.734-15s-2.17-11.019-5.734-15c3.564-3.981 5.734-9.236 5.734-15s-2.17-11.019-5.734-15c3.564-3.981 5.734-9.236 5.734-15z" fill="#ffdc8f"/><path d="m172.5 212.5h-45v52c0 5.764 2.17 11.019 5.734 15-3.564 3.981-5.734 9.236-5.734 15s2.17 11.019 5.734 15c-3.564 3.981-5.734 9.236-5.734 15s2.17 11.019 5.734 15c-3.564 3.981-5.734 9.236-5.734 15s2.17 11.019 5.734 15c-3.564 3.981-5.734 9.236-5.734 15s2.17 11.019 5.734 15c-3.564 3.981-5.734 9.236-5.734 15s2.17 11.019 5.734 15c-3.564 3.981-5.734 9.236-5.734 15s2.17 11.019 5.734 15c-3.564 3.981-5.734 9.236-5.734 15v30h45v-30c0-5.764-2.17-11.019-5.734-15 3.564-3.981 5.734-9.236 5.734-15s-2.17-11.019-5.734-15c3.564-3.981 5.734-9.236 5.734-15s-2.17-11.019-5.734-15c3.564-3.981 5.734-9.236 5.734-15s-2.17-11.019-5.734-15c3.564-3.981 5.734-9.236 5.734-15s-2.17-11.019-5.734-15c3.564-3.981 5.734-9.236 5.734-15s-2.17-11.019-5.734-15c3.564-3.981 5.734-9.236 5.734-15z" fill="#ffdc8f"/><path d="m142.5 182.5c-16.569 0-30 13.432-30 30 0 16.569 13.431 30 30 30h113.5v-60z" fill="#ff9263"/><path d="m369.5 182.5h-113.5v60h113.5c16.569 0 30-13.431 30-30 0-16.568-13.431-30-30-30z" fill="#ff7647"/><path d="m256 97.5v227c54.4 0 98.5-44.1 98.5-98.5v-30c0-54.4-44.1-98.5-98.5-98.5z" fill="#ff9263"/><path d="m324.5 226v-30c0-54.4-30.668-98.5-68.5-98.5-54.4 0-98.5 44.1-98.5 98.5v30c0 54.4 44.1 98.5 98.5 98.5 37.832 0 68.5-44.1 68.5-98.5z" fill="#ffae7e"/><path d="m256 233.5c-12.426 0-22.5 10.074-22.5 22.5v16c0 2.445.395 4.796 1.116 7h42.768c.721-2.204 1.116-4.555 1.116-7v-16c0-12.426-10.074-22.5-22.5-22.5z" fill="#ff2962"/><ellipse cx="256" cy="279" fill="#ff545a" rx="21.384" ry="15.5"/><path d="m438 22.5c0 16.569-13.432 30-30 30h-152v68.5h113.5c46.116 0 83.5-44.1 83.5-98.5z" fill="#ffe7b5"/><path d="m453 7.5c-8.284 0-15 6.716-15 15 0 54.4-30.669 98.5-68.5 98.5 54.4 0 98.5-44.1 98.5-98.5 0-8.284-6.716-15-15-15z" fill="#ffd06a"/><path d="m104 52.5c-16.568 0-30-13.431-30-30 0-8.284-6.716-15-15-15s-15 6.716-15 15c0 54.4 44.1 98.5 98.5 98.5h113.5v-68.5z" fill="#fff"/><path d="m271 22.5v113.5h98.5v-15c0-54.4-44.1-98.5-98.5-98.5z" fill="#95b0ed"/><path d="m271 22.5h-30c-54.4 0-98.5 44.1-98.5 98.5v15h197v-15c0-54.4-30.669-98.5-68.5-98.5z" fill="#acd2f6"/><path d="m256 7.5c-8.284 0-15 6.716-15 15v113.5h30v-113.5c0-8.284-6.716-15-15-15z" fill="#c4f3ff"/><path d="m369.5 121h-30v30h30c8.284 0 15-6.716 15-15s-6.716-15-15-15z" fill="#acd2f6"/><path d="m354.5 136c0-8.284-6.716-15-15-15h-197c-8.284 0-15 6.716-15 15s6.716 15 15 15h197c8.284 0 15-6.716 15-15z" fill="#c4f3ff"/><path d="m226 272c0 16.542 13.458 30 30 30s30-13.458 30-30v-16c0-16.542-13.458-30-30-30s-30 13.458-30 30zm30 15c-5.746 0-10.742-3.252-13.26-8.008 2.561-4.864 7.617-7.992 13.26-7.992s10.699 3.128 13.26 7.992c-2.518 4.756-7.514 8.008-13.26 8.008zm0-46c8.271 0 15 6.729 15 15v4.025c-4.453-2.57-9.587-4.025-15-4.025s-10.547 1.455-15 4.025v-4.025c0-8.271 6.729-15 15-15z"/><path d="m206 203.5h12.5c0 4.142 3.358 7.5 7.5 7.5s7.5-3.358 7.5-7.5v-7.5c0-4.142-3.358-7.5-7.5-7.5h-20c-4.142 0-7.5 3.358-7.5 7.5s3.358 7.5 7.5 7.5z"/><path d="m286 211c4.142 0 7.5-3.358 7.5-7.5h12.5c4.142 0 7.5-3.358 7.5-7.5s-3.358-7.5-7.5-7.5h-20c-4.142 0-7.5 3.358-7.5 7.5v7.5c0 4.142 3.358 7.5 7.5 7.5z"/><path d="m512 429.5c0-54.349-31.844-81.358-62.64-107.479-26.132-22.164-50.859-43.151-56.249-80.416 8.467-6.88 13.889-17.37 13.889-29.105 0-12.566-6.219-23.699-15.733-30.507-1.033-10.086-3.182-19.992-6.419-29.562 4.397-4.109 7.152-9.953 7.152-16.431 0-3.386-.767-6.592-2.112-9.475 48.727-9.533 85.612-52.549 85.612-104.025 0-12.407-10.093-22.5-22.5-22.5s-22.5 10.093-22.5 22.5-10.093 22.5-22.5 22.5h-63.19c-17.696-17.191-41.353-28.272-67.535-29.809-3.042-8.828-11.427-15.191-21.275-15.191s-18.233 6.363-21.275 15.191c-26.182 1.537-49.839 12.618-67.535 29.809h-63.19c-12.407 0-22.5-10.093-22.5-22.5s-10.093-22.5-22.5-22.5-22.5 10.093-22.5 22.5c0 51.476 36.885 94.492 85.612 104.025-1.345 2.883-2.112 6.089-2.112 9.475 0 6.478 2.755 12.322 7.152 16.431-3.237 9.57-5.385 19.476-6.419 29.562-9.514 6.808-15.733 17.941-15.733 30.507 0 11.735 5.422 22.225 13.889 29.106-5.39 37.265-30.118 58.251-56.249 80.416-30.796 26.12-62.64 53.13-62.64 107.478 0 8.174 2.678 16.059 7.51 22.5-4.832 6.441-7.51 14.327-7.51 22.5 0 20.678 16.822 37.5 37.5 37.5h437c20.678 0 37.5-16.822 37.5-37.5 0-8.174-2.677-16.059-7.51-22.5 4.833-6.441 7.51-14.326 7.51-22.5zm-75-15v82.5h-45v-22.5c0-5.31-1.401-10.472-4.019-15 2.618-4.528 4.019-9.69 4.019-15s-1.401-10.472-4.019-15c2.618-4.528 4.019-9.69 4.019-15s-1.401-10.472-4.019-15c2.618-4.528 4.019-9.69 4.019-15s-1.401-10.472-4.019-15c1.289-2.229 2.279-4.613 2.956-7.091 25.921 3.185 46.063 25.323 46.063 52.091zm-315.937-52.091c.677 2.478 1.667 4.862 2.956 7.091-2.618 4.528-4.019 9.69-4.019 15s1.401 10.472 4.019 15c-2.618 4.528-4.019 9.69-4.019 15s1.401 10.472 4.019 15c-2.618 4.528-4.019 9.69-4.019 15s1.401 10.472 4.019 15c-2.618 4.528-4.019 9.69-4.019 15v22.5h-45v-82.5c0-26.768 20.142-48.906 46.063-52.091zm13.937 112.091c0-3.694 1.357-7.245 3.822-9.998 2.549-2.848 2.549-7.157 0-10.005-2.464-2.753-3.822-6.304-3.822-9.998s1.357-7.245 3.822-9.998c2.549-2.848 2.549-7.157 0-10.005-2.464-2.753-3.822-6.304-3.822-9.998s1.357-7.245 3.822-9.998c2.549-2.848 2.549-7.157 0-10.005-2.464-2.753-3.822-6.304-3.822-9.998s1.357-7.245 3.822-9.998c2.549-2.848 2.549-7.157 0-10.005-2.464-2.753-3.822-6.304-3.822-9.998s1.357-7.245 3.822-9.998c2.549-2.848 2.549-7.157 0-10.005-2.464-2.753-3.822-6.304-3.822-9.998s1.357-7.245 3.822-9.998c2.549-2.848 2.549-7.157 0-10.005-2.464-2.753-3.822-6.304-3.822-9.998s1.357-7.245 3.822-9.998c2.549-2.848 2.549-7.157 0-10.005-2.464-2.753-3.822-6.304-3.822-9.998v-15.255c2.424.494 4.932.755 7.5.755h10.241c2.516 10.828 6.7 21.022 12.259 30.302v14.205c0 3.694-1.357 7.245-3.822 9.998-2.549 2.848-2.549 7.157 0 10.005 2.464 2.753 3.822 6.304 3.822 9.998s-1.357 7.245-3.822 9.998c-2.549 2.848-2.549 7.157 0 10.005 2.464 2.753 3.822 6.304 3.822 9.998s-1.357 7.245-3.822 9.998c-2.549 2.848-2.549 7.157 0 10.005 2.464 2.753 3.822 6.304 3.822 9.998s-1.357 7.245-3.822 9.998c-2.549 2.848-2.549 7.157 0 10.005 2.464 2.753 3.822 6.304 3.822 9.998s-1.357 7.245-3.822 9.998c-2.549 2.848-2.549 7.157 0 10.005 2.464 2.753 3.822 6.304 3.822 9.998s-1.357 7.245-3.822 9.998c-2.549 2.848-2.549 7.157 0 10.005 2.464 2.753 3.822 6.304 3.822 9.998v22.494h-30zm197.415-175.115c.588 3.566 1.799 6.993 3.604 10.115-2.618 4.528-4.019 9.69-4.019 15s1.401 10.472 4.019 15c-1.359 2.351-2.382 4.875-3.06 7.5h-153.918c-.677-2.625-1.701-5.149-3.06-7.5 2.618-4.528 4.019-9.69 4.019-15s-1.401-10.472-4.019-15c1.805-3.122 3.016-6.549 3.604-10.115 19.301 20.09 46.422 32.615 76.415 32.615s57.114-12.525 76.415-32.615zm3.604 70.115c-2.618 4.528-4.019 9.69-4.019 15s1.401 10.472 4.019 15c-2.618 4.528-4.019 9.69-4.019 15s1.401 10.472 4.019 15c-1.398 2.418-2.437 5.021-3.113 7.727-32.458 2.229-61.291 20.801-76.906 48.822-15.615-28.021-44.448-46.592-76.906-48.822-.676-2.706-1.715-5.309-3.113-7.727 2.618-4.528 4.019-9.69 4.019-15s-1.401-10.472-4.019-15c2.618-4.528 4.019-9.69 4.019-15s-1.401-10.472-4.019-15c1.359-2.351 2.382-4.875 3.06-7.5h153.919c.677 2.625 1.7 5.149 3.059 7.5zm-160.038 90c1.315-2.274 2.321-4.708 2.999-7.24 28.365 2.274 53.32 19.366 65.814 44.74h-64.794v-22.5c0-5.31-1.401-10.472-4.019-15zm157.039-7.24c.678 2.532 1.684 4.966 2.999 7.24-2.618 4.528-4.019 9.69-4.019 15v22.5h-64.794c12.494-25.375 37.45-42.466 65.814-44.74zm13.98 22.24c0-3.694 1.357-7.245 3.822-9.998 2.549-2.848 2.549-7.157 0-10.005-2.464-2.753-3.822-6.303-3.822-9.998 0-3.694 1.357-7.245 3.822-9.998 2.549-2.848 2.549-7.157 0-10.005-2.464-2.753-3.822-6.303-3.822-9.998 0-3.694 1.357-7.245 3.822-9.998 2.549-2.848 2.549-7.157 0-10.005-2.464-2.753-3.822-6.303-3.822-9.998 0-3.694 1.357-7.245 3.822-9.998 2.549-2.848 2.549-7.157 0-10.005-2.464-2.753-3.822-6.303-3.822-9.998 0-3.694 1.357-7.245 3.822-9.998 2.549-2.848 2.549-7.157 0-10.005-2.464-2.753-3.822-6.303-3.822-9.998 0-3.694 1.357-7.245 3.822-9.998 2.549-2.848 2.549-7.157 0-10.005-2.464-2.753-3.822-6.303-3.822-9.998v-14.198c5.559-9.28 9.743-19.474 12.259-30.302h10.241c2.568 0 5.076-.261 7.5-.755v15.261c0 3.694-1.357 7.245-3.822 9.998-2.549 2.848-2.549 7.157 0 10.005 2.464 2.753 3.822 6.304 3.822 9.998s-1.357 7.245-3.822 9.998c-2.549 2.848-2.549 7.157 0 10.005 2.464 2.753 3.822 6.304 3.822 9.998s-1.357 7.245-3.822 9.998c-2.549 2.848-2.549 7.157 0 10.005 2.464 2.753 3.822 6.304 3.822 9.998s-1.357 7.245-3.822 9.998c-2.549 2.848-2.549 7.157 0 10.005 2.464 2.753 3.822 6.304 3.822 9.998s-1.357 7.245-3.822 9.998c-2.549 2.848-2.549 7.157 0 10.005 2.464 2.753 3.822 6.304 3.822 9.998s-1.357 7.245-3.822 9.998c-2.549 2.848-2.549 7.157 0 10.005 2.464 2.753 3.822 6.304 3.822 9.998s-1.357 7.245-3.822 9.998c-2.549 2.848-2.549 7.157 0 10.005 2.464 2.753 3.822 6.304 3.822 9.998v22.493h-30zm28.237-299.061c-1.871-.288-3.787-.439-5.737-.439h-9.572c-1.127-5.619-2.715-11.125-4.757-16.5h14.329c.515 0 1.025-.024 1.532-.058 1.813 5.555 3.218 11.232 4.205 16.997zm70.263-152.939c0-4.136 3.364-7.5 7.5-7.5s7.5 3.364 7.5 7.5c0 47.751-36.97 87.028-83.791 90.715-1.438-19.713-8.289-37.945-19.073-53.215h50.364c20.678 0 37.5-16.822 37.5-37.5zm-83.811 91h-83.189v-83.189c44.208 3.624 79.565 38.981 83.189 83.189zm-128.189-83.189v60.689c0 4.142 3.358 7.5 7.5 7.5s7.5-3.358 7.5-7.5v-68.5c0-4.136 3.364-7.5 7.5-7.5s7.5 3.364 7.5 7.5v91h-113.189c3.624-44.208 38.981-79.565 83.189-83.189zm-182-7.811c0-4.136 3.364-7.5 7.5-7.5s7.5 3.364 7.5 7.5c0 20.678 16.822 37.5 37.5 37.5h50.364c-10.784 15.27-17.635 33.502-19.073 53.215-46.821-3.687-83.791-42.964-83.791-90.715zm318 106c4.136 0 7.5 3.364 7.5 7.5s-3.364 7.5-7.5 7.5h-227c-4.136 0-7.5-3.364-7.5-7.5s3.364-7.5 7.5-7.5zm-228.532 29.942c.507.034 1.016.058 1.532.058h14.329c-2.042 5.375-3.63 10.881-4.757 16.5h-9.572c-1.951 0-3.866.151-5.737.439.987-5.765 2.392-11.442 4.205-16.997zm1.532 31.558h7.668c-.109 1.989-.168 3.989-.168 6 0 4.142 3.358 7.5 7.5 7.5s7.5-3.358 7.5-7.5c0-13.124 2.72-25.717 8.073-37.5h165.854c5.353 11.783 8.073 24.376 8.073 37.5 0 4.142 3.358 7.5 7.5 7.5s7.5-3.358 7.5-7.5c0-2.011-.059-4.011-.168-6h7.668c12.407 0 22.5 10.093 22.5 22.5s-10.093 22.5-22.5 22.5h-7.886c.251-2.968.386-5.968.386-9 0-4.142-3.358-7.5-7.5-7.5s-7.5 3.358-7.5 7.5c0 50.178-40.822 91-91 91s-91-40.822-91-91c0-4.142-3.358-7.5-7.5-7.5s-7.5 3.358-7.5 7.5c0 3.032.135 6.032.386 9h-7.886c-12.407 0-22.5-10.093-22.5-22.5s10.093-22.5 22.5-22.5zm-127.5 284.5c0-6.448 2.781-12.599 7.629-16.875 1.614-1.424 2.539-3.472 2.539-5.625s-.925-4.201-2.539-5.625c-4.848-4.276-7.629-10.427-7.629-16.875 0-47.402 27.854-71.027 57.342-96.039 19.064-16.17 38.557-32.722 50.629-55.961.326.678.671 1.347 1.048 2-2.618 4.528-4.019 9.69-4.019 15s1.401 10.472 4.019 15c-2.618 4.528-4.019 9.69-4.019 15s1.401 10.472 4.019 15c-1.415 2.448-2.462 5.086-3.137 7.828-34.124 3.337-60.882 32.185-60.882 67.172v82.5h-22.5c-12.407 0-22.5-10.093-22.5-22.5zm474.371-16.875c4.848 4.276 7.629 10.427 7.629 16.875 0 12.407-10.093 22.5-22.5 22.5h-22.5v-82.5c0-34.987-26.758-63.835-60.882-67.172-.675-2.742-1.721-5.38-3.137-7.828 2.618-4.528 4.019-9.69 4.019-15s-1.401-10.472-4.019-15c2.618-4.528 4.019-9.69 4.019-15s-1.401-10.472-4.019-15c.377-.653.722-1.322 1.048-2 12.072 23.239 31.564 39.791 50.629 55.961 29.488 25.012 57.342 48.637 57.342 96.039 0 6.448-2.781 12.599-7.629 16.875-1.614 1.424-2.539 3.472-2.539 5.625s.925 4.201 2.539 5.625z"/></g></svg>