<svg id="Layer_5" enable-background="new 0 0 64 64" height="512" viewBox="0 0 64 64" width="512" xmlns="http://www.w3.org/2000/svg" xmlns:xlink="http://www.w3.org/1999/xlink"><linearGradient id="SVGID_1_" gradientUnits="userSpaceOnUse" x1="32" x2="32" y1="63" y2="1"><stop offset="0" stop-color="#9f2fff"/><stop offset="1" stop-color="#0bb1d3"/></linearGradient><path d="m32 1c-17.093 0-31 13.907-31 31s13.907 31 31 31 31-13.907 31-31-13.907-31-31-31zm18.385 49.385c.188-.189.439-.293.707-.293s.518.104.707.293c.189.188.293.439.293.707s-.104.518-.293.707c-.377.378-1.036.378-1.413 0-.189-.188-.293-.439-.293-.707s.103-.518.292-.707zm-18.385 7.615c.551 0 1 .449 1 1s-.449 1-1 1-1-.449-1-1 .449-1 1-1zm0-3c-4.797 0-9.254-1.478-12.944-4h25.888c-3.69 2.522-8.147 4-12.944 4zm15.475-6h-30.95c-.571-.52-1.113-1.069-1.629-1.643l13.447-20.843 2.492 4.153-8.601 14.333h19.532l-16.755-27.926-9.801 15.926h6.567l-2.581 4h-9.642c-.157-.707-.281-1.426-.372-2.156l15.637-24.69c.103-.034.205-.072.309-.105l23.98 37.302c-.516.576-1.061 1.128-1.633 1.649zm-33.567 2.092c0 .267-.104.518-.293.707-.377.378-1.036.378-1.414 0-.189-.188-.293-.439-.293-.707s.104-.518.293-.707c.188-.189.439-.293.707-.293s.518.104.707.293.293.44.293.707zm-1.707-37.477c-.189-.188-.293-.439-.293-.707s.104-.518.293-.707c.188-.189.439-.293.707-.293s.518.104.707.293c.189.188.293.439.293.707s-.104.518-.293.707c-.377.378-1.036.379-1.414 0zm9.402-2.121-12.587 19.875c.236-8.674 5.293-16.161 12.587-19.875zm10.397-5.494c-.551 0-1-.449-1-1s.449-1 1-1 1 .449 1 1-.449 1-1 1zm0 3c1.665 0 3.288.182 4.854.52l-4.808 7.591-4.883-7.595c1.561-.335 3.178-.516 4.837-.516zm10.26 24h6.529l-9.8-15.926-3.363 5.606-2.387-3.714 5.645-8.913c.1.031.198.068.298.101l15.637 24.691c-.09.729-.214 1.448-.372 2.155h-9.614zm-5.428-8.444 2.178-3.631 6.2 10.075h-4.236zm-26.739 14.444h7.814l-4.345 6.734c-1.505-2.016-2.686-4.287-3.469-6.734zm12.975-8h-4.278l6.2-10.074 2.206 3.677zm5.098 8h7.668l2.4 4h-12.468zm1.2-2 2.634-4.39 2.634 4.39zm21.077 8.727-4.325-6.727h7.79c-.784 2.444-1.962 4.713-3.465 6.727zm-8.046-34.233c7.294 3.713 12.352 11.201 12.587 19.875zm7.988 2.121c-.189-.188-.293-.439-.293-.707s.104-.518.293-.707c.188-.189.439-.293.707-.293s.518.104.707.293c.189.188.293.439.293.707s-.104.518-.293.707c-.378.378-1.036.379-1.414 0zm-1.414-2.828c-.562.562-.872 1.309-.877 2.103-3.84-3.239-8.664-5.341-13.955-5.792.531-.542.861-1.281.861-2.098 0-.725-.269-1.381-.698-1.9 6.277.496 11.995 2.995 16.517 6.862-.684.059-1.349.325-1.848.825zm-19.11-3.689c-5.29.451-10.115 2.553-13.955 5.792-.005-.794-.315-1.54-.877-2.102s0 0 0 0c-.5-.5-1.165-.766-1.848-.825 4.522-3.867 10.24-6.367 16.517-6.862-.429.518-.698 1.174-.698 1.899 0 .817.33 1.556.861 2.098zm-19.074 7.931c.562.562 1.309.872 2.103.877-3.239 3.84-5.341 8.664-5.792 13.955-.542-.531-1.281-.861-2.098-.861-.725 0-1.381.269-1.9.698.495-6.264 2.985-11.971 6.838-16.489.068.687.355 1.326.849 1.82zm-4.787 16.971c0 .551-.449 1-1 1s-1-.449-1-1 .449-1 1-1 1 .449 1 1zm-1 3c.817 0 1.556-.33 2.098-.861.452 5.303 2.563 10.138 5.815 13.982-.779-.001-1.558.282-2.126.849s0 0 0 0c-.494.494-.78 1.134-.849 1.82-3.853-4.516-6.344-10.224-6.838-16.488.519.429 1.175.698 1.9.698zm10.029 18.213c.562-.562.872-1.309.877-2.103 3.84 3.239 8.664 5.341 13.955 5.792-.531.542-.861 1.281-.861 2.098 0 .725.269 1.381.698 1.9-6.264-.495-11.971-2.985-16.489-6.838.687-.068 1.326-.355 1.82-.849zm19.11 3.689c5.29-.451 10.115-2.553 13.955-5.792.005.794.315 1.54.877 2.102s0 0 0 0c.494.494 1.134.78 1.82.849-4.517 3.853-10.225 6.343-16.489 6.838.429-.518.698-1.174.698-1.899 0-.817-.33-1.556-.861-2.098zm19.074-7.931c-.568-.568-1.348-.851-2.127-.85 3.252-3.844 5.364-8.679 5.815-13.982.543.531 1.282.861 2.099.861.725 0 1.381-.269 1.9-.698-.495 6.264-2.985 11.971-6.838 16.489-.068-.687-.355-1.326-.849-1.82zm4.787-16.971c0-.551.449-1 1-1s1 .449 1 1-.449 1-1 1-1-.449-1-1zm1-3c-.817 0-1.556.33-2.098.861-.451-5.29-2.553-10.115-5.792-13.955.794-.005 1.54-.315 2.102-.877s0 0 0 0c.494-.494.78-1.134.849-1.82 3.853 4.517 6.343 10.225 6.838 16.489-.518-.429-1.174-.698-1.899-.698zm-36.409-22.327c.211.51-.031 1.095-.541 1.307s-1.095-.031-1.307-.541.031-1.095.541-1.307 1.096.03 1.307.541zm-16.46 14.612c.211-.51.796-.753 1.307-.541s.752.796.541 1.306-.796.753-1.307.541c-.51-.211-.752-.796-.541-1.306zm1.307 21.971c-.51.211-1.095-.031-1.307-.541-.211-.51.031-1.095.541-1.307.51-.211 1.095.031 1.307.541s-.031 1.096-.541 1.307zm15.153 14.071c-.211.51-.796.753-1.307.541-.51-.211-.753-.796-.541-1.307.211-.51.796-.753 1.307-.541.51.212.753.797.541 1.307zm18.818 0c-.211-.51.031-1.095.541-1.307.51-.211 1.095.031 1.307.541.211.51-.031 1.095-.541 1.307-.511.212-1.096-.03-1.307-.541zm16.46-14.612c-.211.51-.796.753-1.307.541-.51-.211-.753-.796-.541-1.307s.796-.753 1.307-.541c.51.212.752.797.541 1.307zm-1.307-21.971c.51-.211 1.095.031 1.307.541.211.51-.031 1.095-.541 1.307-.51.211-1.095-.031-1.307-.541s.031-1.096.541-1.307zm-15.153-14.071c.211-.51.796-.753 1.307-.541s.753.796.541 1.307-.797.751-1.307.54-.753-.796-.541-1.306z" fill="url(#SVGID_1_)"/></svg>