<svg height="510pt" viewBox="1 1 510.695 510" width="510pt" xmlns="http://www.w3.org/2000/svg"><path d="m436.167969 75.183594c-48.257813-48.257813-112.421875-74.835938-180.667969-74.835938s-132.410156 26.578125-180.664062 74.835938c-48.257813 48.253906-74.835938 112.417968-74.835938 180.664062s26.578125 132.40625 74.835938 180.664063c48.257812 48.257812 112.417968 74.835937 180.664062 74.835937s132.410156-26.578125 180.667969-74.835937c48.257812-48.257813 74.832031-112.417969 74.832031-180.664063s-26.578125-132.410156-74.832031-180.664062zm0 0" fill="#7f282e"/><path d="m417.785156 93.5625c-43.347656-43.347656-100.984375-67.21875-162.285156-67.21875s-118.9375 23.871094-162.285156 67.21875-67.21875 100.980469-67.21875 162.285156c0 61.304688 23.871094 118.9375 67.21875 162.285156 43.347656 43.347657 100.984375 67.21875 162.285156 67.21875s118.9375-23.871093 162.285156-67.21875c43.347656-43.347656 67.21875-100.980468 67.21875-162.285156 0-61.304687-23.871094-118.9375-67.21875-162.285156zm0 0" fill="#bd3d36"/><path d="m417.785156 93.5625c-43.347656-43.347656-100.984375-67.21875-162.285156-67.21875-3.851562 0-7.6875.09375-11.507812.28125 56.980468 2.792969 110.152343 26.3125 150.777343 66.9375 43.347657 43.347656 67.222657 100.980469 67.222657 162.285156 0 61.304688-23.875 118.9375-67.222657 162.285156-40.625 40.625-93.796875 64.140626-150.777343 66.9375 3.820312.1875 7.65625.28125 11.507812.28125 61.300781 0 118.9375-23.871093 162.285156-67.21875 43.347656-43.347656 67.21875-100.980468 67.21875-162.285156 0-61.304687-23.871094-118.9375-67.21875-162.285156zm0 0" fill="#b6261b"/><g fill="#f3d9ab"><path d="m255.289062 112.367188c-.90625 0-1.816406-.195313-2.667968-.59375-2.214844-1.035157-3.628906-3.257813-3.628906-5.699219v-58.425781c0-2.445313 1.414062-4.667969 3.628906-5.703126 2.210937-1.035156 4.824218-.699218 6.703125.867188l35.015625 29.210938c1.433594 1.195312 2.261718 2.96875 2.261718 4.835937s-.828124 3.636719-2.261718 4.835937l-35.015625 29.210938c-1.15625.964844-2.589844 1.460938-4.035157 1.460938zm6.296876-51.265626v31.519532l18.890624-15.761719zm0 0"/><path d="m315.371094 124.933594c-.921875 0-1.859375-.203125-2.746094-.632813-3.128906-1.519531-4.433594-5.285156-2.914062-8.414062l25.535156-52.609375c1.519531-3.128906 5.285156-4.433594 8.414062-2.914063 3.128906 1.515625 4.433594 5.285157 2.917969 8.414063l-25.539063 52.609375c-1.089843 2.242187-3.332031 3.546875-5.667968 3.546875zm0 0"/><path d="m331.234375 102.976562c-3.34375 0-6.128906-2.632812-6.285156-6.007812-.160157-3.472656 2.527343-6.417969 6-6.582031l55.144531-2.539063c3.496094-.164062 6.417969 2.523438 6.578125 5.996094.160156 3.476562-2.523437 6.421875-6 6.582031l-55.140625 2.542969c-.101562.003906-.199219.007812-.296875.007812zm0 0"/><path d="m372.765625 163.550781c-1.539063 0-3.082031-.558593-4.296875-1.691406-2.542969-2.375-2.679688-6.359375-.304688-8.902344l36.03125-38.617187c2.371094-2.542969 6.355469-2.679688 8.898438-.308594s2.679688 6.355469.308594 8.898438l-36.035156 38.621093c-1.238282 1.328125-2.917969 2-4.601563 2zm0 0"/><path d="m448.234375 184.015625c-.949219 0-1.917969-.214844-2.824219-.671875l-61.378906-30.910156c-3.105469-1.5625-4.355469-5.347656-2.789062-8.457032 1.5625-3.101562 5.347656-4.355468 8.453124-2.789062l61.375 30.90625c3.109376 1.566406 4.355469 5.351562 2.792969 8.457031-1.105469 2.195313-3.324219 3.464844-5.628906 3.464844zm0 0"/><path d="m401.269531 211.074219c-1.203125 0-2.417969-.34375-3.492187-1.0625-2.890625-1.929688-3.671875-5.839844-1.738282-8.734375l23.710938-35.507813c1.929688-2.894531 5.839844-3.671875 8.734375-1.742187 2.890625 1.933594 3.667969 5.839844 1.738281 8.734375l-23.714844 35.511719c-1.210937 1.816406-3.207031 2.800781-5.238281 2.800781zm0 0"/><path d="m461.019531 262.011719h-56.085937c-3.476563 0-6.296875-2.816407-6.296875-6.296875 0-3.476563 2.820312-6.296875 6.296875-6.296875h56.085937c3.476563 0 6.296875 2.820312 6.296875 6.296875 0 3.480468-2.820312 6.296875-6.296875 6.296875zm0 0"/><path d="m428.121094 309.246094c-.519532 0-1.042969-.0625-1.554688-.195313-1.671875-.421875-3.09375-1.515625-3.9375-3.015625l-23.1875-41.253906c-1.703125-3.03125-.625-6.871094 2.40625-8.574219s6.867188-.628906 8.574219 2.402344l19.949219 35.496094 27.300781-17.117188c2.949219-1.84375 6.835937-.957031 8.679687 1.988281 1.847657 2.949219.957032 6.832032-1.988281 8.679688l-32.898437 20.628906c-1.011719.632813-2.171875.960938-3.34375.960938zm0 0"/><path d="m437.953125 361.710938c-1.28125 0-2.574219-.390626-3.6875-1.199219l-47.179687-34.183594c-2.816407-2.039063-3.445313-5.976563-1.402344-8.792969 2.039062-2.816406 5.976562-3.445312 8.789062-1.40625l47.179688 34.1875c2.816406 2.039063 3.445312 5.976563 1.402344 8.792969-1.230469 1.699219-3.152344 2.601563-5.101563 2.601563zm0 0"/><path d="m374.855469 394.890625c-1.53125 0-3.027344-.558594-4.191407-1.597656-1.460937-1.304688-2.234374-3.214844-2.089843-5.171875l3.136719-41.777344c.167968-2.277344 1.5625-4.285156 3.636718-5.242188 2.078125-.957031 4.507813-.71875 6.351563.628907l44.632812 32.582031c2.027344 1.480469 2.980469 4.015625 2.433594 6.460938-.546875 2.445312-2.492187 4.335937-4.953125 4.808593l-47.769531 9.195313c-.394531.074218-.792969.113281-1.1875.113281zm8.566406-36.3125-1.671875 22.277344 25.472656-4.902344zm0 0"/><path d="m362.386719 440.402344c-.320313 0-.648438-.023438-.96875-.074219l-45.058594-7.019531c-1.847656-.289063-3.46875-1.382813-4.429687-2.984375-.960938-1.597657-1.164063-3.542969-.550782-5.308594l14.988282-43.070313c.800781-2.308593 2.867187-3.941406 5.300781-4.191406 2.433593-.253906 4.785156.925782 6.042969 3.019532l30.074218 50.089843c1.253906 2.097657 1.1875 4.730469-.175781 6.757813-1.183594 1.753906-3.148437 2.78125-5.222656 2.78125zm-36.632813-18.375 24.308594 3.785156-16.222656-27.023438zm0 0"/><path d="m279.507812 468.71875c-3.226562 0-5.972656-2.464844-6.265624-5.738281l-5.183594-58.25c-.308594-3.464844 2.25-6.523438 5.714844-6.828125 3.472656-.308594 6.519531 2.246094 6.828124 5.710937l5.183594 58.25c.308594 3.464844-2.25 6.523438-5.710937 6.832031-.191407.015626-.378907.023438-.566407.023438zm0 0"/><path d="m226.066406 468.023438c-2.035156 0-4.035156-.988282-5.25-2.8125-1.921875-2.894532-1.136718-6.804688 1.757813-8.730469l45.972656-30.5625c2.898437-1.925781 6.804687-1.136719 8.726563 1.757812 1.925781 2.894531 1.140624 6.804688-1.757813 8.730469l-45.96875 30.5625c-1.070313.714844-2.28125 1.054688-3.480469 1.054688zm0 0"/><path d="m194.242188 458.554688c-.4375 0-.878907-.042969-1.320313-.140626-3.402344-.722656-5.570313-4.070312-4.84375-7.46875l11.015625-51.65625c.722656-3.402343 4.070312-5.574218 7.46875-4.84375 3.402344.722657 5.570312 4.070313 4.84375 7.46875l-11.015625 51.65625c-.628906 2.960938-3.242187 4.984376-6.148437 4.984376zm0 0"/><path d="m130 428.199219c-3.265625 0-6.027344-2.519531-6.273438-5.828125-.257812-3.46875 2.34375-6.488282 5.8125-6.746094l68.53125-5.09375c3.476563-.257812 6.488282 2.347656 6.746094 5.8125.257813 3.46875-2.34375 6.488281-5.8125 6.746094l-68.53125 5.09375c-.160156.011718-.316406.015625-.472656.015625zm0 0"/><path d="m154.300781 423.480469c-.101562 0-.207031-.003907-.308593-.007813-3.472657-.167968-6.152344-3.117187-5.988282-6.589844l2.054688-42.652343c.164062-3.472657 3.101562-6.152344 6.589844-5.988281 3.472656.167968 6.152343 3.121093 5.988281 6.59375l-2.054688 42.648437c-.160156 3.371094-2.945312 5.996094-6.28125 5.996094zm0 0"/><path d="m78.910156 367.90625c-2.136718 0-4.222656-1.089844-5.402344-3.054688-1.792968-2.984374-.824218-6.851562 2.15625-8.640624l48.085938-28.867188c2.980469-1.792969 6.847656-.824219 8.636719 2.15625 1.792969 2.980469.824219 6.847656-2.15625 8.640625l-48.085938 28.867187c-1.015625.609376-2.132812.898438-3.234375.898438zm0 0"/><path d="m65.203125 345.09375c-.957031 0-1.933594-.21875-2.847656-.683594-3.097657-1.574218-4.335938-5.363281-2.761719-8.464844l17.589844-34.621093c.78125-1.535157 2.15625-2.683594 3.804687-3.175781 1.648438-.496094 3.429688-.292969 4.925781.558593l41.113282 23.4375c3.023437 1.722657 4.074218 5.566407 2.351562 8.585938-1.71875 3.023437-5.566406 4.078125-8.585937 2.351562l-35.375-20.164062-14.59375 28.730469c-1.113281 2.1875-3.324219 3.445312-5.621094 3.445312zm0 0"/><path d="m105.410156 275.585938c-.183594 0-.367187-.007813-.550781-.023438l-58.042969-5.027344c-3.464844-.300781-6.03125-3.351562-5.730468-6.816406.300781-3.464844 3.351562-6.027344 6.816406-5.730469l58.042968 5.027344c3.464844.300781 6.03125 3.351563 5.730469 6.816406-.285156 3.28125-3.035156 5.753907-6.265625 5.753907zm0 0"/><path d="m103.203125 247.0625c-.1875 0-.378906-.007812-.566406-.023438l-55.039063-4.960937c-2.496094-.226563-4.621094-1.910156-5.410156-4.289063-.789062-2.378906-.09375-5 1.773438-6.671874l36.222656-32.46875c1.457031-1.3125 3.445312-1.867188 5.371094-1.5 1.925781.367187 3.574218 1.605468 4.457031 3.359374l18.8125 37.429688c1.027343 2.042969.867187 4.480469-.417969 6.371094-1.179688 1.730468-3.132812 2.753906-5.203125 2.753906zm-40.0625-16.230469 29.351563 2.648438-10.035157-19.960938zm0 0"/><path d="m127.621094 184.011719c-1.339844 0-2.691406-.425781-3.835938-1.308594l-46.351562-35.65625c-2.753906-2.121094-3.269532-6.074219-1.148438-8.832031 2.121094-2.753906 6.070313-3.269532 8.828125-1.148438l46.351563 35.65625c2.753906 2.121094 3.269531 6.074219 1.148437 8.832032-1.238281 1.609374-3.105469 2.457031-4.992187 2.457031zm0 0"/><path d="m109.339844 164.03125c-.328125 0-.664063-.027344-.996094-.078125-3.433594-.546875-5.777344-3.773437-5.230469-7.207031l8.671875-54.519532c.546875-3.433593 3.777344-5.773437 7.210938-5.226562 3.433594.542969 5.773437 3.773438 5.226562 7.207031l-8.671875 54.515625c-.492187 3.097656-3.167969 5.308594-6.210937 5.308594zm0 0"/><path d="m173.085938 130.003906c-1.972657 0-3.917969-.925781-5.144532-2.65625l-26.542968-37.484375c-2.011719-2.835937-1.339844-6.765625 1.5-8.777343 2.835937-2.011719 6.765624-1.339844 8.773437 1.5l26.546875 37.484374c2.011719 2.835938 1.339844 6.765626-1.5 8.777344-1.105469.78125-2.375 1.15625-3.632812 1.15625zm0 0"/><path d="m169.683594 119.703125c-1.371094 0-2.75-.445313-3.910156-1.363281-2.722657-2.160156-3.179688-6.121094-1.019532-8.84375l42.691406-53.847656c2.160157-2.726563 6.121094-3.183594 8.847657-1.023438 2.722656 2.160156 3.179687 6.121094 1.019531 8.84375l-42.691406 53.851562c-1.242188 1.566407-3.082032 2.382813-4.9375 2.382813zm0 0"/><path d="m224.648438 112.535156c-1.628907 0-3.253907-.625-4.484376-1.875l-25.253906-25.621094c-2.441406-2.476562-2.414062-6.460937.0625-8.902343 2.476563-2.441407 6.464844-2.414063 8.90625.0625l25.253906 25.621093c2.441407 2.476563 2.410157 6.460938-.066406 8.902344-1.226562 1.210938-2.824218 1.8125-4.417968 1.8125zm0 0"/></g><path d="m255.421875 107.640625c-81.695313 0-148.160156 66.464844-148.160156 148.15625 0 81.695313 66.464843 148.164063 148.160156 148.164063s148.160156-66.464844 148.160156-148.164063c0-81.695313-66.464843-148.15625-148.160156-148.15625zm0 0" fill="#929e9e"/><path d="m255.421875 154.707031c-55.742187 0-101.089844 45.347657-101.089844 101.089844s45.347657 101.09375 101.089844 101.09375 101.089844-45.351563 101.089844-101.09375-45.347657-101.089844-101.089844-101.089844zm0 0" fill="#f3d9ab"/><path d="m255.421875 209.507812c-25.523437 0-46.289063 20.765626-46.289063 46.289063 0 25.527344 20.765626 46.292969 46.289063 46.292969s46.289063-20.765625 46.289063-46.292969c0-25.523437-20.765626-46.289063-46.289063-46.289063zm0 0" fill="#bd3d36"/><path d="m255.421875 107.640625c-3.871094 0-7.707031.148437-11.507813.441406 76.339844 5.890625 136.652344 69.894531 136.652344 147.714844 0 77.824219-60.3125 141.828125-136.652344 147.71875 3.800782.292969 7.636719.445313 11.507813.445313 81.695313 0 148.160156-66.464844 148.160156-148.164063 0-81.691406-66.464843-148.15625-148.160156-148.15625zm0 0" fill="#7a8786"/><path d="m255.421875 154.707031c-3.890625 0-7.730469.230469-11.507813.660157 50.34375 5.730468 89.585938 48.582031 89.585938 100.429687 0 51.851563-39.242188 94.703125-89.585938 100.433594 3.777344.429687 7.617188.660156 11.507813.660156 55.742187 0 101.089844-45.351563 101.089844-101.089844 0-55.742187-45.347657-101.09375-101.089844-101.09375zm0 0" fill="#e8cea6"/><path d="m255.421875 209.507812c-3.972656 0-7.828125.503907-11.507813 1.449219 19.976563 5.128907 34.785157 23.289063 34.785157 44.839844 0 21.554687-14.808594 39.714844-34.785157 44.84375 3.679688.941406 7.535157 1.449219 11.507813 1.449219 25.523437 0 46.289063-20.765625 46.289063-46.292969 0-25.523437-20.765626-46.289063-46.289063-46.289063zm0 0" fill="#b6261b"/></svg>