<svg id="Layer_5" enable-background="new 0 0 64 64" height="512" viewBox="0 0 64 64" width="512" xmlns="http://www.w3.org/2000/svg"><g><g><g><path d="m38 48c0 3.31 2.69 6 6 6s6-2.69 6-6c0-1.1-.29-2.12-.81-3h.27c3.61 0 6.54-2.93 6.54-6.54 0-1.23.5-2.34 1.31-3.15s1.92-1.31 3.15-1.31c.85 0 1.54.69 1.54 1.54 0 .3-.09.59-.26.85-1.13 1.7-1.74 3.7-1.74 5.75v7.86c0 6.63-5.37 12-12 12h-29.77c-4.6 0-8.99-1.95-12.06-5.37-1.35-1.49-2.39-3.2-3.09-5.04-.71-1.85-1.08-3.81-1.08-5.82v-.94c0-2.52.59-5 1.71-7.26l1.67-3.33c.41-.82.62-1.71.62-2.62 0-1.11-.31-2.17-.87-3.08-.57-.91-1.37-1.66-2.37-2.16l-.76-.38c0-.55.22-1.05.59-1.41.36-.37.86-.59 1.41-.59 1.66 0 3.16.67 4.24 1.76 1.09 1.08 1.76 2.58 1.76 4.24v8.46c0 3.06 2.09 5.62 4.92 6.34h.01c-.59.92-.93 2.02-.93 3.2 0 3.31 2.69 6 6 6s6-2.69 6-6c0 3.31 2.69 6 6 6s6-2.69 6-6z" fill="#cf9e76"/></g><g><path d="m26 48c0 3.31-2.69 6-6 6s-6-2.69-6-6c0-1.18.34-2.28.93-3.2 1.06-1.68 2.94-2.8 5.07-2.8 3.31 0 6 2.69 6 6z" fill="#fcd770"/></g><g><path d="m34 42.34c2.33.82 4 3.05 4 5.66 0 3.31-2.69 6-6 6s-6-2.69-6-6c0-2.61 1.67-4.84 4-5.66.63-.22 1.3-.34 2-.34s1.37.12 2 .34z" fill="#fcd770"/></g><g><path d="m49.19 45c.52.88.81 1.9.81 3 0 3.31-2.69 6-6 6s-6-2.69-6-6 2.69-6 6-6c2.22 0 4.16 1.21 5.19 3z" fill="#fcd770"/></g><g><circle cx="20" cy="48" fill="#ffc729" r="2"/></g><g><circle cx="32" cy="48" fill="#ffc729" r="2"/></g><g><circle cx="44" cy="48" fill="#ffc729" r="2"/></g><g><path d="m34 34v8.34c-.63-.22-1.3-.34-2-.34s-1.37.12-2 .34v-8.34h3z" fill="#b27946"/></g><g><path d="m34 4v4h-1-3v-4c0-1.1.9-2 2-2 .55 0 1.05.22 1.41.59.37.36.59.86.59 1.41z" fill="#b27946"/></g><g><path d="m41 8h8c-1.97 3.95-3 8.3-3 12.71v.58c0 4.41 1.03 8.76 3 12.71h-8c-1.97-3.95-3-8.3-3-12.71v-.58c0-4.41 1.03-8.76 3-12.71z" fill="#e6e9ed"/></g><g><path d="m30 21.29c0 4.41 1.03 8.76 3 12.71h-3-5c-1.97-3.95-3-8.3-3-12.71v-.58c0-4.41 1.03-8.76 3-12.71h5 3c-1.97 3.95-3 8.3-3 12.71z" fill="#e6e9ed"/></g><g><path d="m34 8h7c-1.97 3.95-3 8.3-3 12.71v.58c0 4.41 1.03 8.76 3 12.71h-7-1c-1.97-3.95-3-8.3-3-12.71v-.58c0-4.41 1.03-8.76 3-12.71z" fill="#ff826e"/></g><g><path d="m17 8h8c-1.97 3.95-3 8.3-3 12.71v.58c0 4.41 1.03 8.76 3 12.71h-8c-1.97-3.95-3-8.3-3-12.71v-.58c0-4.41 1.03-8.76 3-12.71z" fill="#ff826e"/></g></g><g><path d="m60.465 33c-3.014 0-5.465 2.452-5.465 5.465 0 2.964-2.344 5.384-5.274 5.522-1.267-1.803-3.36-2.987-5.726-2.987-2.548 0-4.775 1.373-6 3.413-.708-1.18-1.751-2.132-3-2.728v-6.685h15.618l-.724-1.447c-1.893-3.788-2.894-8.028-2.894-12.261v-.584c0-4.233 1.001-8.473 2.895-12.261l.723-1.447h-15.618v-3c0-1.654-1.346-3-3-3s-3 1.346-3 3v3h-12.618l-.276.553c-2.032 4.064-3.106 8.613-3.106 13.155v.584c0 4.542 1.074 9.091 3.105 13.155l.277.553h12.618v6.685c-1.249.596-2.292 1.548-3 2.728-1.225-2.04-3.452-3.413-6-3.413-2.201 0-4.165 1.023-5.449 2.617-2.115-.813-3.551-2.837-3.551-5.152v-8.465c0-3.86-3.141-7-7-7-1.654 0-3 1.346-3 3v.618l1.316.658c1.656.828 2.684 2.492 2.684 4.342 0 .749-.178 1.5-.513 2.17l-1.669 3.338c-1.189 2.381-1.818 5.045-1.818 7.705v.942c0 4.264 1.57 8.356 4.422 11.524 3.263 3.624 7.93 5.703 12.805 5.703h29.773c7.168 0 13-5.832 13-13v-7.859c0-1.856.544-3.654 1.574-5.199.279-.419.426-.905.426-1.407 0-1.398-1.138-2.535-2.535-2.535zm-16.465 10c2.757 0 5 2.243 5 5s-2.243 5-5 5-5-2.243-5-5 2.243-5 5-5zm-4.565-10h-5.796c-1.722-3.646-2.639-7.678-2.639-11.708v-.584c0-4.03.917-8.062 2.638-11.708h5.796c-1.594 3.683-2.434 7.697-2.434 11.708v.584c0 4.011.84 8.025 2.435 11.708zm-10.435-12.292v.584c0 4.011.84 8.025 2.435 11.708h-5.796c-1.722-3.646-2.639-7.678-2.639-11.708v-.584c0-4.03.917-8.062 2.638-11.708h5.796c-1.594 3.683-2.434 7.697-2.434 11.708zm16 0v.584c0 4.01.837 8.026 2.432 11.708h-5.793c-1.722-3.646-2.639-7.678-2.639-11.708v-.584c0-4.03.917-8.062 2.638-11.708h5.793c-1.594 3.682-2.431 7.698-2.431 11.708zm-14-16.708c0-.551.448-1 1-1s1 .449 1 1v3h-2zm-16 17.292v-.584c0-4.029.906-8.063 2.626-11.708h5.809c-1.595 3.683-2.435 7.697-2.435 11.708v.584c0 4.011.84 8.025 2.435 11.708h-5.809c-1.72-3.645-2.626-7.679-2.626-11.708zm16 13.708h2v6.08c-.328-.047-.66-.08-1-.08s-.672.033-1 .08zm1 8c2.757 0 5 2.243 5 5s-2.243 5-5 5-5-2.243-5-5 2.243-5 5-5zm-12 0c2.757 0 5 2.243 5 5s-2.243 5-5 5-5-2.243-5-5 2.243-5 5-5zm40.91-7.168c-1.25 1.875-1.91 4.057-1.91 6.309v7.859c0 6.065-4.935 11-11 11h-29.773c-4.309 0-8.435-1.837-11.318-5.041-2.521-2.8-3.909-6.417-3.909-10.186v-.942c0-2.351.556-4.705 1.607-6.81l1.669-3.338c.474-.947.724-2.007.724-3.065 0-2.613-1.452-4.962-3.789-6.131l-.053-.026c.178-.277.488-.461.842-.461 2.757 0 5 2.243 5 5v8.465c0 3.037 1.808 5.724 4.518 6.904-.332.813-.518 1.7-.518 2.631 0 3.86 3.141 7 7 7 2.548 0 4.775-1.373 6-3.413 1.225 2.04 3.452 3.413 6 3.413s4.775-1.373 6-3.413c1.225 2.04 3.452 3.413 6 3.413 3.859 0 7-3.14 7-7 0-.734-.115-1.441-.325-2.106 3.58-.582 6.325-3.687 6.325-7.429 0-1.911 1.555-3.465 3.465-3.465.295 0 .535.24.535.535 0 .106-.031.209-.09.297z"/><path d="m32 51c1.654 0 3-1.346 3-3s-1.346-3-3-3-3 1.346-3 3 1.346 3 3 3zm0-4c.552 0 1 .449 1 1s-.448 1-1 1-1-.449-1-1 .448-1 1-1z"/><path d="m44 51c1.654 0 3-1.346 3-3s-1.346-3-3-3-3 1.346-3 3 1.346 3 3 3zm0-4c.552 0 1 .449 1 1s-.448 1-1 1-1-.449-1-1 .448-1 1-1z"/><path d="m20 51c1.654 0 3-1.346 3-3s-1.346-3-3-3-3 1.346-3 3 1.346 3 3 3zm0-4c.552 0 1 .449 1 1s-.448 1-1 1-1-.449-1-1 .448-1 1-1z"/></g></g></svg>