<svg height="512" viewBox="0 0 48 58" width="512" xmlns="http://www.w3.org/2000/svg"><g id="024---Viking-Man" fill="none" fill-rule="evenodd" transform="translate(0 -1)"><path id="Shape" d="m41.48 41.64c-1.6255041-1.0739705-3.5317556-1.6444545-5.48-1.64h-24c-5.52056262.0055123-9.9944877 4.4794374-10 10v7c.0032948 1.1032019.89679813 1.9967052 2 2h40c1.1032019-.0032948 1.9967052-.8967981 2-2v-7c.0027689-3.3714121-1.6974868-6.5161328-4.52-8.36z" fill="#5f5346" fill-rule="nonzero"/><path id="Shape" d="m41.48 41.64c-1.5636335 1.3433979-2.4682613 3.2985612-2.48 5.36v12h-30v-12c-.0117387-2.0614388-.91636646-4.0166021-2.48-5.36 1.62550407-1.0739705 3.5317556-1.6444545 5.48-1.64h24c1.9482444-.0044545 3.8544959.5660295 5.48 1.64z" fill="#a59078" fill-rule="nonzero"/><path id="Shape" d="m25.293 55.707-4-4c-.3789722-.3923789-.3735524-1.0160848.0121814-1.4018186s1.0094397-.3911536 1.4018186-.0121814l4 4c.3789722.3923789.3735524 1.0160848-.0121814 1.4018186s-1.0094397.3911536-1.4018186.0121814z" fill="#5f5346" fill-rule="nonzero"/><path id="Shape" d="m21.293 55.707c-.3903819-.3904999-.3903819-1.0235001 0-1.414l4-4c.3923789-.3789722 1.0160848-.3735524 1.4018186.0121814s.3911536 1.0094397.0121814 1.4018186l-4 4c-.3904999.3903819-1.0235001.3903819-1.414 0z" fill="#5f5346" fill-rule="nonzero"/><path id="Shape" d="m46.73 1.09c-.7224626-.23879996-1.5173881-.00827156-2 .58l-2.94 3.31c-1.1397746 1.28329396-2.7736297 2.01834682-4.49 2.02h-4.18c-1.96-3-4.96-6-9.12-6s-7.16 3-9.12 6h-4.18c-1.71637025-.00165318-3.35022538-.73670604-4.49-2.02l-2.94-3.31c-.48261186-.58827156-1.2775374-.81879996-2-.58-.75702035.2535293-1.26799824.96165614-1.27 1.76.0024621.21455702.03960834.4273037.11.63l2.62 6.41c.76937845 1.8800509 2.59861303 3.1087592 4.63 3.11h3.64c-1.10320187.0032948-1.9967052.8967981-2 2v1c.00163957.7857989.46328191 1.4978235 1.18 1.82-.20405922 1.2306083-.21755041 2.4852884-.04 3.72.4711104 1.9473247 1.8358916 3.5568764 3.68 4.34-.547104 2.3337502-.8222681 4.7229794-.82 7.12 0 4 1 13 11 13s11-9 11-13c.0022681-2.3970206-.272896-4.7862498-.82-7.12 1.8441084-.7831236 3.2088896-2.3926753 3.68-4.34.1775504-1.2347116.1640592-2.4893917-.04-3.72.7167181-.3221765 1.1783604-1.0342011 1.18-1.82v-1c-.0032948-1.1032019-.8967981-1.9967052-2-2h3.64c2.031387-.0012408 3.8606216-1.2299491 4.63-3.11l2.62-6.41c.0703917-.2026963.1075379-.41544298.11-.63-.0020018-.79834386-.5129796-1.5064707-1.27-1.76z" fill="#cbb292" fill-rule="nonzero"/><path id="Shape" d="m13.09 18.05c-.0199968-.0209026-.0437418-.0378633-.07-.05z" stroke="#000" stroke-linecap="round" stroke-linejoin="round" stroke-width="2"/><path id="Shape" d="m34.98 18c-.0262582.0121367-.0500032.0290974-.07.05z" stroke="#000" stroke-linecap="round" stroke-linejoin="round" stroke-width="2"/><g fill-rule="nonzero"><path id="Shape" d="m39 15v1c-.0016396.7857989-.4632819 1.4978235-1.18 1.82-.2563937.1206827-.5366324.1821985-.82.18h-26c-.2833676.0021985-.5636063-.0593173-.82-.18-.71671809-.3221765-1.17836043-1.0342011-1.18-1.82v-1c.0032948-1.1032019.89679813-1.9967052 2-2h26c1.1032019.0032948 1.9967052.8967981 2 2z" fill="#bdc3c7"/><path id="Shape" d="m36 13h-24c.7047102-2.1128113 1.6723002-4.1286237 2.88-6 1.96-3 4.96-6 9.12-6s7.16 3 9.12 6c1.2076998 1.8713763 2.1752898 3.8871887 2.88 6z" fill="#603e26"/><circle id="Oval" cx="24" cy="5" fill="#bdc3c7" r="1"/><circle id="Oval" cx="24" cy="9" fill="#bdc3c7" r="1"/><path id="Shape" d="m34.91 18.05c-.21 3.26-.77 4.31-.77 6.38 0 .49.02.97.04 1.45-.6300797 1.4885332-1.6321285 2.7901636-2.91 3.78-.4512094.3655287-1.0379576.5190846-1.6103806.4214472s-1.0750925-.4370136-1.3796194-.9314472l-.41-.69c-.5372156-.9079076-1.5150663-1.4634181-2.57-1.46h-2.6c-1.0549337-.0034181-2.0327844.5520924-2.57 1.46l-.41.69c-.3045269.4944336-.8071964.8338098-1.3796194.9314472s-1.1591712-.0559185-1.6103806-.4214472c-1.2778715-.9898364-2.2799203-2.2914668-2.91-3.78.02-.48.04-.96.04-1.45 0-2.07-.56-3.12-.77-6.38-.0090705-.0149873-.0126084-.0326769-.01-.05h21.84c.0026084.0173231-.0009295.0350127-.01.05z" fill="#fdd7ad"/><path id="Shape" d="m35 33c0 4-1 13-11 13s-11-9-11-13c-.0022681-2.3970206.272896-4.7862498.82-7.12.6300797 1.4885332 1.6321285 2.7901636 2.91 3.78.4512094.3655287 1.0379576.5190846 1.6103806.4214472s1.0750925-.4370136 1.3796194-.9314472l.41-.69c.5372156-.9079076 1.5150663-1.4634181 2.57-1.46h2.6c1.0549337-.0034181 2.0327844.5520924 2.57 1.46l.41.69c.3045269.4944336.8071964.8338098 1.3796194.9314472s1.1591712-.0559185 1.6103806-.4214472c1.2778715-.9898364 2.2799203-2.2914668 2.91-3.78.547104 2.3337502.8222681 4.7229794.82 7.12z" fill="#f29c1f"/><path id="Shape" d="m37.86 21.54c-.4711104 1.9473247-1.8358916 3.5568764-3.68 4.34-.02-.48-.04-.96-.04-1.45 0-2.07.56-3.12.77-6.38.0090705-.0149873.0126084-.0326769.01-.05h2.08c.2833676.0021985.5636063-.0593173.82-.18.2040592 1.2306083.2175504 2.4852884.04 3.72z" fill="#f9c795"/><path id="Shape" d="m13.86 24.43c0 .49-.02.97-.04 1.45-1.8441084-.7831236-3.2088896-2.3926753-3.68-4.34-.17755041-1.2347116-.16405922-2.4893917.04-3.72.2563937.1206827.5366324.1821985.82.18h2.08c-.0026084.0173231.0009295.0350127.01.05.21 3.26.77 4.31.77 6.38z" fill="#f9c795"/></g></g></svg>