<svg id="Layer_5" enable-background="new 0 0 64 64" height="512" viewBox="0 0 64 64" width="512" xmlns="http://www.w3.org/2000/svg"><g><g><g><path d="m57.89 30.35c-.55 3.37-3.22 5.87-7.99 7.48-2.24.76-4.95 1.32-8.11 1.68-2.88.33-6.14.49-9.79.49s-6.91-.16-9.79-.49c-3.16-.36-5.87-.92-8.11-1.68-4.77-1.61-7.44-4.11-7.99-7.48-.07 1.18-.11 2.4-.11 3.65 0 6.88.92 12.28 1.98 16.2 1.86 2.06 5.02 3.58 9.48 4.54 2.43.52 5.25.89 8.45 1.08 1.89.12 3.92.18 6.09.18s4.2-.06 6.1-.18c3.2-.19 6.01-.56 8.44-1.08 4.46-.96 7.63-2.48 9.48-4.54l.01-.01c1.05-3.92 1.97-9.32 1.97-16.19 0-1.25-.04-2.47-.11-3.65z" fill="#cf9e76"/></g><g><path d="m54.66 13.44c-1.71 1.3-4.07 2.32-7.07 3.06-2.2.54-4.76.94-7.67 1.19-2.4.21-5.04.31-7.92.31s-5.52-.1-7.92-.31c-2.91-.25-5.47-.65-7.67-1.19-3-.74-5.36-1.76-7.07-3.06-1.06 3.17-2.18 7.39-2.82 12.38 1 2.63 3.52 4.62 7.52 5.99 2.2.74 4.86 1.3 7.96 1.67 2.93.35 6.27.52 10 .52s7.07-.17 10-.52c3.11-.37 5.77-.93 7.97-1.67v-.01c4-1.36 6.51-3.36 7.51-5.98-.64-4.99-1.76-9.21-2.82-12.38z" fill="#cf9e76"/></g><g><path d="m46.54 54.74c4.46-.96 7.63-2.48 9.48-4.54-1.4 5.2-3.02 7.8-3.02 7.8s-5 4-21 4-21-4-21-4-1.62-2.6-3.02-7.8c1.86 2.06 5.02 3.58 9.48 4.54 2.43.52 5.25.89 8.45 1.08 1.89.12 3.92.18 6.09.18s4.2-.06 6.1-.18c3.2-.19 6.01-.56 8.44-1.08z" fill="#b27946"/></g><g><path d="m49.9 37.83c-2.24.76-4.95 1.32-8.11 1.68-2.88.33-6.14.49-9.79.49s-6.91-.16-9.79-.49c-3.16-.36-5.87-.92-8.11-1.68-4.77-1.61-7.44-4.11-7.99-7.48.08-1.57.23-3.08.41-4.53 1 2.63 3.52 4.62 7.52 5.99 2.2.74 4.86 1.3 7.96 1.67 2.93.35 6.27.52 10 .52s7.07-.17 10-.52c3.11-.37 5.77-.93 7.97-1.67v-.01c4-1.36 6.51-3.36 7.51-5.98.18 1.45.33 2.96.41 4.53-.55 3.37-3.22 5.87-7.99 7.48z" fill="#b27946"/></g><g><path d="m52 7s1.28 2.34 2.66 6.44c-1.71 1.3-4.07 2.32-7.07 3.06-2.2.54-4.76.94-7.67 1.19-2.4.21-5.04.31-7.92.31s-5.52-.1-7.92-.31c-2.91-.25-5.47-.65-7.67-1.19-3-.74-5.36-1.76-7.07-3.06 1.38-4.1 2.66-6.44 2.66-6.44 0 2.76 7.85 5 20 5s20-2.24 20-5z" fill="#b27946"/></g><g><path d="m12 7c0-2.76 7.85-5 20-5s20 2.24 20 5-7.85 5-20 5-20-2.24-20-5z" fill="#e6e9ed"/></g><g><ellipse cx="23" cy="7" fill="#969faa" rx="3" ry="2"/></g></g><g><path d="m52.976 6.707c-.491-4.204-11.506-5.707-20.976-5.707s-20.485 1.503-20.976 5.707c-.809 1.551-6.024 12.145-6.024 27.293 0 16.102 4.941 24.193 5.152 24.53l.09.145.133.106c.216.172 5.46 4.219 21.625 4.219s21.409-4.047 21.625-4.219l.133-.106.09-.145c.211-.337 5.152-8.428 5.152-24.53 0-15.148-5.215-25.742-6.024-27.293zm2.124 43.001c-1.482 1.545-3.816 2.755-6.99 3.625 1.146-3.363 2.344-8.295 2.743-14.821 2.736-1.01 4.779-2.33 6.136-3.951-.048 6.371-.905 11.423-1.889 15.147zm-48.09-15.147c1.357 1.621 3.4 2.941 6.136 3.951.399 6.526 1.597 11.457 2.744 14.821-3.173-.87-5.507-2.08-6.99-3.624-.984-3.724-1.841-8.777-1.89-15.148zm5.065-25.395c3.044 2.788 12.024 3.834 19.925 3.834 7.903 0 16.884-1.046 19.926-3.836.417.94.958 2.254 1.532 3.895-3.963 2.614-11.17 3.941-21.458 3.941-10.286 0-17.492-1.327-21.456-3.938.574-1.642 1.114-2.956 1.531-3.896zm10.767 9.404c-1.086 4.518-1.694 9.134-1.813 13.757-2.242-.314-4.237-.733-5.954-1.264.21-4.517.9-9.012 2.054-13.387 1.723.378 3.626.678 5.713.894zm2.015.178c1.912.143 3.961.224 6.143.243v13.997c-2.911-.026-5.574-.165-7.976-.418.105-4.645.72-9.286 1.833-13.822zm8.143.243c2.182-.019 4.231-.1 6.143-.243 1.113 4.535 1.728 9.176 1.833 13.823-2.402.252-5.065.391-7.976.418zm9.971 13.336c-.119-4.624-.727-9.24-1.813-13.757 2.087-.216 3.99-.515 5.713-.895 1.154 4.374 1.844 8.868 2.054 13.387-1.717.532-3.712.95-5.954 1.265zm7.921-1.98c-.248-4.44-.947-8.852-2.08-13.152 2.089-.586 3.853-1.315 5.292-2.184.899 2.882 1.791 6.492 2.343 10.657-.829 1.935-2.703 3.499-5.555 4.679zm-35.704-13.152c-1.133 4.302-1.831 8.714-2.08 13.152-2.851-1.18-4.724-2.743-5.553-4.677.552-4.161 1.445-7.773 2.344-10.657 1.439.868 3.201 1.597 5.289 2.182zm16.812 17.805c12.983 0 21.134-2.035 24.783-6.184.039.478.073.962.103 1.451-1.016 5.794-9.384 8.733-24.886 8.733-15.501 0-23.868-2.939-24.885-8.731.029-.49.063-.974.103-1.452 3.649 4.149 11.8 6.183 24.782 6.183zm-13.79 18.879c-1.167-3.082-2.521-7.968-3.011-14.706 1.795.508 3.816.914 6.08 1.209.586 6.621 2.004 11.439 3.103 14.328-2.277-.186-4.337-.462-6.172-.831zm8.38.979c-1.054-2.555-2.629-7.343-3.283-14.242 2.338.227 4.913.346 7.693.37v14.004c-1.543-.013-3.013-.057-4.41-.132zm6.41-13.872c2.78-.025 5.355-.143 7.693-.37-.655 6.908-2.236 11.702-3.283 14.242-1.397.075-2.867.119-4.41.132zm9.722-.604c2.265-.295 4.285-.701 6.08-1.209-.491 6.739-1.845 11.625-3.011 14.706-1.835.368-3.894.644-6.169.83 1.209-3.159 2.534-7.897 3.1-14.327zm-10.722-37.382c13.263 0 19 2.648 19 4s-5.737 4-19 4-19-2.648-19-4 5.737-4 19-4zm20.243 54.313c-.868.583-6.156 3.687-20.243 3.687-13.971 0-19.373-3.119-20.246-3.691-.258-.459-1.012-1.893-1.845-4.274 4.383 2.661 11.662 3.965 22.091 3.965 10.43 0 17.709-1.304 22.091-3.966-.836 2.388-1.592 3.824-1.848 4.279z"/><path d="m23 10c2.243 0 4-1.317 4-3s-1.757-3-4-3-4 1.317-4 3 1.757 3 4 3zm0-4c1.221 0 2 .592 2 1s-.779 1-2 1-2-.592-2-1 .779-1 2-1z"/><circle cx="28" cy="46" r="1"/><circle cx="36" cy="46" r="1"/><circle cx="45" cy="45" r="1"/><circle cx="53" cy="44" r="1"/><circle cx="19" cy="45" r="1"/><circle cx="11" cy="44" r="1"/></g></g></svg>