<svg id="Layer_5" enable-background="new 0 0 64 64" height="512" viewBox="0 0 64 64" width="512" xmlns="http://www.w3.org/2000/svg"><g><g><g><path d="m28.37 2.93 3.63 9.07h-5-5l3.63-9.07c.22-.56.77-.93 1.37-.93s1.15.37 1.37.93z" fill="#ff826e"/></g><g><path d="m11 18c-.63 0-1.23-.29-1.62-.78l-6.41-8c-.63-.79-.97-1.77-.97-2.78 0-1.22.5-2.34 1.3-3.14s1.92-1.3 3.14-1.3h.18c1.49 0 2.87.74 3.7 1.98l.68 1.02.68-1.02c.83-1.24 2.21-1.98 3.7-1.98h.18c2.45 0 4.44 1.99 4.44 4.44 0 1.01-.34 1.99-.97 2.78l-6.41 8c-.39.49-.99.78-1.62.78z" fill="#ff826e"/></g><g><path d="m16 52-3.63 9.07c-.22.56-.77.93-1.37.93s-1.15-.37-1.37-.93l-3.63-9.07h5z" fill="#ff826e"/></g><g><path d="m27 46c.63 0 1.23.29 1.62.78l6.41 8c.11.14.21.28.3.43-.76.95-1.24 2.05-1.32 3.38-.05.8.18 1.57.62 2.18-.8.76-1.88 1.23-3.07 1.23h-.18c-1.49 0-2.87-.74-3.7-1.98l-.68-1.02-.68 1.02c-.83 1.24-2.21 1.98-3.7 1.98h-.18c-2.45 0-4.44-1.99-4.44-4.44 0-1.01.34-1.99.97-2.78l6.41-8c.39-.49.99-.78 1.62-.78z" fill="#ff826e"/></g><g><path d="m37 53.64c2.12-1.55 5.08-2.61 7.99-3.65 5.17-1.85 11.01-3.94 11.01-7.99h6c0 8.28-8.66 11.38-14.98 13.64-2.34.84-6.69 2.39-7.02 3.39 0 1.77-1.6 3.21-3.46 2.94-.8-.12-1.47-.57-1.91-1.2-.44-.61-.67-1.38-.62-2.18.08-1.33.56-2.43 1.32-3.38.46-.58 1.03-1.1 1.67-1.57z" fill="#b27946"/></g><g><path d="m47.01 8.36c6.33 2.26 14.99 5.36 14.99 13.64h-6c0-4.05-5.84-6.14-11-7.99-2.92-1.04-5.89-2.1-8-3.65-1.71-1.25-2.86-2.82-2.99-4.96-.09-1.6.94-3.13 2.53-3.37 1.86-.27 3.46 1.16 3.46 2.97.33.97 4.68 2.52 7.01 3.36z" fill="#b27946"/></g><g><path d="m62 22c0 3.94-2.2 7.61-4.05 10 1.85 2.39 4.05 6.06 4.05 10h-6c0-1.73-.96-3.66-2-5.22l-2.38-3c-.4-.5-.62-1.13-.62-1.78s.22-1.28.62-1.78l2.38-3c1.04-1.56 2-3.5 2-5.22z" fill="#fcd770"/></g></g><g><path d="m12 51v-32.186c.543-.187 1.035-.508 1.406-.971l6.401-8.002c.769-.961 1.193-2.169 1.193-3.399 0-3.001-2.441-5.442-5.441-5.442h-.182c-1.736 0-3.354.821-4.377 2.209-1.023-1.388-2.641-2.209-4.377-2.209h-.182c-3 0-5.441 2.441-5.441 5.442 0 1.23.424 2.438 1.192 3.399l6.401 8.002.001.001c.37.462.862.783 1.405.97v32.186h-5.477l4.178 10.441c.377.947 1.28 1.559 2.3 1.559s1.923-.612 2.3-1.557l4.178-10.443zm-8.245-42.408c-.487-.608-.755-1.372-.755-2.15 0-1.898 1.544-3.442 3.441-3.442h.182c1.153 0 2.224.573 2.863 1.533l1.514 2.269 1.514-2.27c.639-.959 1.71-1.532 2.863-1.532h.182c1.897 0 3.441 1.544 3.441 3.442 0 .778-.268 1.542-.755 2.15l-6.245 7.808v-6.4h-2v6.4zm7.687 52.109c-.145.363-.74.365-.885-.001l-3.079-7.7h7.045z"/><path d="m63 22c0-8.986-9.045-12.22-15.654-14.583-1.394-.499-5.517-1.973-6.359-2.747-.086-1.042-.577-2.012-1.378-2.701-.884-.76-2.062-1.098-3.217-.923-2.024.302-3.508 2.242-3.378 4.416.138 2.3 1.298 4.008 2.986 5.362v42.352c-.201.161-.398.323-.583.495l-6.012-7.515c-.37-.462-.862-.783-1.405-.97v-32.186h5.478l-4.178-10.441c-.377-.947-1.28-1.559-2.3-1.559s-1.923.612-2.3 1.557l-4.178 10.443h5.478v32.186c-.543.187-1.035.508-1.406.971l-6.401 8.002c-.769.961-1.193 2.169-1.193 3.399 0 3 2.441 5.442 5.441 5.442h.182c1.736 0 3.354-.821 4.377-2.209 1.023 1.388 2.641 2.209 4.377 2.209h.182c1.074 0 2.103-.316 2.984-.896.525.436 1.151.745 1.848.85.201.03.403.046.603.046.959 0 1.891-.341 2.624-.974.796-.688 1.282-1.647 1.364-2.673.824-.788 4.97-2.271 6.371-2.772 6.604-2.362 15.647-5.596 15.647-14.581 0-3.898-1.967-7.497-3.795-10 1.828-2.503 3.795-6.102 3.795-10zm-36.442-18.701c.145-.363.74-.365.885.001l3.08 7.7h-7.045zm8.452 2.043c-.068-1.149.668-2.167 1.678-2.318.105-.016.21-.024.314-.024.479 0 .933.167 1.301.484.443.382.697.934.697 1.516v.165l.053.156c.371 1.093 2.151 2.023 7.625 3.98 6.089 2.178 13.581 4.874 14.256 11.699h-4.039c-.806-4.078-6.491-6.118-11.56-7.931-4.955-1.771-10.077-3.603-10.325-7.727zm2.99 6.814c2.021 1.133 4.404 1.989 6.661 2.796 4.847 1.734 10.339 3.698 10.339 7.048 0 1.25-.634 2.863-1.783 4.596l-2.379 3c-.54.68-.838 1.534-.838 2.404 0 .871.298 1.725.839 2.405l2.329 2.931c1.198 1.799 1.832 3.412 1.832 4.664 0 3.35-5.495 5.315-10.343 7.049-2.256.807-4.637 1.662-6.657 2.794zm-6.623 48.844c-1.153 0-2.224-.573-2.863-1.533l-1.514-2.269-1.514 2.27c-.639.959-1.71 1.532-2.863 1.532h-.182c-1.897 0-3.441-1.544-3.441-3.442 0-.778.268-1.542.755-2.15l6.245-7.808v6.4h2v-6.399l6.103 7.629c-.615.949-1.011 2.033-1.088 3.302-.042.693.094 1.354.345 1.954-.538.331-1.157.514-1.801.514zm15.301-6.301c-5.475 1.958-7.258 2.896-7.632 4.02l-.051.155v.164c.002.56-.248 1.098-.685 1.474-.45.39-1.031.554-1.623.465-1.011-.152-1.747-1.172-1.677-2.323.251-4.121 5.37-5.952 10.32-7.722 5.07-1.813 10.757-3.854 11.563-7.932h4.037c-.7 6.835-8.483 9.635-14.252 11.699zm14.254-13.699h-4.022c-.228-1.434-.926-3.043-2.127-4.84l-2.378-2.999c-.261-.328-.405-.741-.405-1.161s.144-.833.404-1.162l2.428-3.067c1.161-1.743 1.851-3.34 2.078-4.771h4.022c-.329 3.286-2.178 6.334-3.769 8.388l-.474.612.474.612c1.59 2.054 3.44 5.102 3.769 8.388z"/><circle cx="55" cy="32" r="1"/><circle cx="58" cy="26" r="1"/><circle cx="58" cy="38" r="1"/></g></g></svg>