<svg height="511pt" viewBox="0 1 511 511.999" width="511pt" xmlns="http://www.w3.org/2000/svg"><path d="m389.28125 200.402344h-110.367188v-134.855469h-44.847656v134.855469h-110.367187v44.847656h110.367187v33.601562l22.425782 27.410157 22.421874-27.410157v-33.601562h110.367188zm0 0" fill="#ffb655"/><path d="m278.914062 86.132812c53.578126 10.453126 94.015626 57.636719 94.015626 114.269532h-94.015626zm-44.847656 0c-53.574218 10.453126-94.011718 57.636719-94.011718 114.269532h94.011718zm0 0" fill="#ffb655"/><path d="m278.914062 86.132812c53.578126 10.453126 94.015626 57.636719 94.015626 114.269532h-94.015626zm-44.847656 0c-53.574218 10.453126-94.011718 57.636719-94.011718 114.269532h94.011718zm0 0" fill="#c6c5ca"/><path d="m445.335938 7.5c-10.421876 0-19.417969 7.433594-21.21875 17.699219-3.496094 19.914062-12.933594 38.988281-28.3125 54.367187-18.570313 18.570313-42.527344 28.476563-66.839844 29.714844 16.945312 13.492188 30.042968 31.609375 37.378906 52.449219 13.664062-6.859375 26.484375-15.992188 37.886719-27.394531 34.539062-34.542969 48.238281-82.027344 41.105469-126.835938zm0 0" fill="#c6c5ca"/><path d="m67.648438 7.5c10.417968 0 19.417968 7.433594 21.21875 17.699219 3.496093 19.914062 12.933593 38.988281 28.3125 54.367187 18.570312 18.570313 42.527343 28.476563 66.839843 29.714844-16.949219 13.492188-30.042969 31.609375-37.378906 52.449219-13.667969-6.859375-26.484375-15.992188-37.890625-27.394531-34.535156-34.542969-48.238281-82.027344-41.101562-126.835938zm0 0" fill="#c6c5ca"/><path d="m375.035156 277.59375 34.265625 34.265625-52.15625 52.15625-34.265625-34.269531zm0 0" fill="#c6c5ca"/><path d="m399.386719 264.617188 22.890625 22.886718-18.664063 18.664063-22.890625-22.886719zm0 0" fill="#b77062"/><path d="m471.164062 435.199219c-22.542968 22.546875-52.097656 33.816406-81.644531 33.816406l.003907-33.164063c16.546874.007813 33.097656-4.953124 47.222656-14.882812l-68.273438-68.277344 29.316406-29.3125 1.757813 1.757813c27.574219 27.574219 67.738281 38.398437 105.433594 28.414062.003906 29.550781-11.269531 59.105469-33.816407 81.648438zm0 0" fill="#c6c5ca"/><path d="m190.109375 329.753906-34.269531 34.265625-52.15625-52.152343 34.269531-34.269532zm0 0" fill="#c6c5ca"/><path d="m132.261719 283.289062-22.886719 22.886719-18.664062-18.664062 22.886718-22.886719zm0 0" fill="#b77062"/><path d="m41.816406 435.199219c22.542969 22.546875 52.097656 33.816406 81.648438 33.816406l-.003906-33.164063c-16.550782.007813-33.097657-4.953124-47.226563-14.882812l68.273437-68.277344-29.3125-29.3125-1.757812 1.757813c-27.578125 27.574219-67.738281 38.398437-105.4375 28.414062 0 29.550781 11.273438 59.105469 33.816406 81.648438zm0 0" fill="#c6c5ca"/><path d="m351.457031 358.332031-22.886719-22.890625-20.382812 20.382813c-41.121094 41.121093-93.441406 68.957031-150.191406 80.191406v63.671875c71.363281-36.847656 136.625-84.523438 193.460937-141.355469zm0 0" fill="#b77062"/><path d="m161.527344 358.332031 22.886718-22.890625 20.378907 20.382813c15.722656 15.71875 33.082031 29.5 51.699219 41.152343-10.417969 6.519532-21.230469 12.375-32.367188 17.53125-21.832031-17.5625-42.730469-36.308593-62.597656-56.175781zm127.332031 56.175781c-10.574219 8.503907-21.367187 16.730469-32.367187 24.667969 31.246093 22.550781 64.160156 42.785157 98.488281 60.507813v-63.667969c-22.910157-4.539063-45.097657-11.78125-66.121094-21.507813zm0 0" fill="#b77062"/><path d="m234.066406 65.546875h30v134.855469h-30zm0 0" fill="#ff7956"/><path d="m264.066406 278.851562v-33.601562h-30v33.601562l22.425782 27.410157 15-18.335938zm0 0" fill="#ff7956"/><path d="m123.699219 200.402344h30v44.847656h-30zm0 0" fill="#ff7956"/><g fill="#898890"><path d="m234.066406 96.414062v-10.28125c-53.574218 10.453126-94.011718 57.636719-94.011718 114.269532h30c0-45.449219 26.039062-84.808594 64.011718-103.988282zm0 0"/><path d="m278.914062 86.132812v114.269532h30v-103.988282c-9.347656-4.71875-19.417968-8.21875-30-10.28125zm0 0"/><path d="m358.964844 109.28125c24.3125-1.238281 48.269531-11.144531 66.835937-29.714844 8.402344-8.398437 15.027344-17.902344 19.882813-28.039062 2.085937-14.601563 1.972656-29.457032-.347656-44.027344-10.421876 0-19.417969 7.433594-21.21875 17.699219-3.496094 19.914062-12.933594 38.988281-28.3125 54.367187-18.570313 18.570313-42.527344 28.476563-66.839844 29.714844 16.945312 13.492188 30.042968 31.609375 37.378906 52.445312 8.207031-4.121093 16.109375-9.058593 23.585938-14.820312-7.582032-14.628906-18.179688-27.445312-30.964844-37.625zm0 0"/><path d="m138.75 134.332031c-23.304688-23.304687-37.121094-52.507812-41.453125-82.804687-4.035156-8.425782-6.84375-17.292969-8.429687-26.328125-1.800782-10.265625-10.800782-17.699219-21.21875-17.699219-7.136719 44.804688 6.566406 92.292969 41.101562 126.832031 11.40625 11.402344 24.222656 20.535157 37.890625 27.394531 1.800781-5.113281 3.945313-10.0625 6.414063-14.820312-4.96875-3.828125-9.75-8.019531-14.304688-12.574219zm0 0"/><path d="m352.878906 329.753906 37.15625-37.15625-15-15-52.15625 52.15625 34.269532 34.265625 14.996093-15zm0 0"/></g><path d="m400.722656 283.285156 8.667969-8.664062-10-10-18.664063 18.664062 22.886719 22.890625 10-10zm0 0" fill="#895247"/><path d="m389.519531 469.015625c10.089844 0 20.183594-1.3125 30-3.945313l.003907-29.21875c16.550781.003907 33.097656-4.957031 47.226562-14.882812l-68.277344-68.277344 15.457032-15.457031c-5.082032-3.578125-9.898438-7.617187-14.382813-12.101563l-1.757813-1.757812-29.316406 29.316406 68.277344 68.277344c-14.128906 9.925781-30.675781 14.886719-47.226562 14.882812zm0 0" fill="#898890"/><path d="m133.679688 311.863281 19.269531-19.265625-15-15-34.269531 34.265625 52.15625 52.15625 15-15zm0 0" fill="#898890"/><path d="m110.707031 287.511719 12.886719-12.890625-10-10-22.886719 22.890625 18.664063 18.664062 10-10zm0 0" fill="#895247"/><path d="m129.050781 337.238281-13.859375-13.859375-1.757812 1.757813c-17.144532 17.144531-39.15625 27.8125-62.414063 31.03125 27.519531 3.8125 55.425781-3.007813 78.03125-18.929688zm0 0" fill="#898890"/><path d="m71.816406 435.199219c-21.621094-21.621094-32.875-49.6875-33.761718-78.015625-10.003907.1875-20.117188-1-30.054688-3.628906 0 29.546874 11.273438 59.101562 33.816406 81.648437 22.542969 22.542969 52.097656 33.816406 81.648438 33.816406v-3.945312c-18.921875-5.074219-36.804688-15.027344-51.648438-29.875zm0 0" fill="#898890"/><path d="m177.992188 436.015625c56.753906-11.234375 109.074218-39.070313 150.195312-80.195313l10.378906-10.378906-9.996094-10-20.382812 20.378906c-41.121094 41.125-93.441406 68.960938-150.191406 80.195313v63.671875c6.71875-3.472656 13.386718-7.039062 19.996094-10.699219zm0 0" fill="#895247"/><path d="m181.527344 358.332031 12.886718-12.890625-10-10-22.886718 22.890625c19.867187 19.867188 40.765625 38.613281 62.597656 56.171875 4.203125-1.945312 8.359375-3.992187 12.46875-6.132812-19.117188-15.773438-37.496094-32.46875-55.066406-50.039063zm0 0" fill="#895247"/><path d="m276.492188 439.175781c8.5625-6.179687 16.996093-12.53125 25.300781-19.058593-4.355469-1.765626-8.667969-3.636719-12.933594-5.609376-10.574219 8.503907-21.367187 16.730469-32.367187 24.667969 31.246093 22.550781 64.160156 42.785157 98.488281 60.507813v-10.699219c-27.152344-15.039063-53.363281-31.671875-78.488281-49.808594zm0 0" fill="#895247"/><path d="m116.199219 252.75h110.367187v28.777344l29.925782 36.578125 29.921874-36.578125v-28.777344h110.367188v-59.847656h-110.367188v-134.855469h-59.847656v134.855469h-110.367187zm15-44.847656h110.367187v-134.855469h29.847656v134.855469h110.367188v29.847656h-110.367188v38.421875l-14.921874 18.246094-14.925782-18.246094v-38.421875h-110.367187zm0 0"/><path d="m159.691406 215.992188h15v15h-15zm0 0"/><path d="m189.691406 215.992188h15v15h-15zm0 0"/><path d="m219.691406 215.992188h15v15h-15zm0 0"/><path d="m249.691406 215.992188h15v15h-15zm0 0"/><path d="m249.691406 245.992188h15v15h-15zm0 0"/><path d="m249.691406 185.992188h15v15h-15zm0 0"/><path d="m249.691406 155.996094h15v15h-15zm0 0"/><path d="m249.691406 125.996094h15v15h-15zm0 0"/><path d="m249.691406 95.996094h15v15h-15zm0 0"/><path d="m279.6875 215.992188h15v15h-15zm0 0"/><path d="m309.6875 215.992188h15v15h-15zm0 0"/><path d="m339.6875 215.992188h15v15h-15zm0 0"/><path d="m503.0625 346.300781c-33.367188 8.835938-69.136719.023438-94.578125-23.011719l11.425781-11.425781-5.691406-5.6875 18.664062-18.667969-33.492187-33.492187-18.664063 18.664063-5.691406-5.691407-62.761718 62.765625 5.6875 5.6875-15.078126 15.078125c-40.101562 40.105469-90.707031 67.125-146.34375 78.136719l-6.042968 1.199219v82.144531l10.9375-5.648438c69.953125-36.121093 133.839844-82.339843 190-137.441406l5.714844 5.714844 11.324218-11.324219 56.273438 56.273438c-18.0625 9.671875-33.207032 8.777343-42.722656 8.773437l-.007813 48.167969h7.503906c32.847657 0 63.726563-12.789063 86.949219-36.011719s36.015625-54.101562 36.015625-86.953125v-9.742187zm-337.570312 140.960938v-45.152344c56.183593-12.308594 107.242187-40.226563 148-80.984375l15.078124-15.074219 12.253907 12.253907c-52.121094 51.121093-111.023438 94.445312-175.332031 128.957031zm233.898437-212.03125 12.277344 12.277343-8.054688 8.058594-12.28125-12.28125zm-42.242187 78.183593-23.664063-23.660156 41.546875-41.550781 23.664062 23.664063zm108.714843 76.484376c-18.613281 18.613281-42.828125 29.59375-68.84375 31.363281v-18.214844c26.445313-2.171875 41.941407-14.46875 51.34375-21.070313l-69.285156-69.285156 18.789063-18.785156c26.746093 24.527344 63.625 35.238281 99.214843 29.046875-2.164062 25.292969-13.0625 48.785156-31.21875 66.945313zm0 0"/><path d="m88.238281 419.570312 56.269531-56.269531 11.328126 11.324219 5.714843-5.714844c13.042969 12.792969 26.644531 25.238282 40.519531 37.070313l9.734376-11.414063c-13.578126-11.574218-26.886719-23.75-39.648438-36.261718l12.253906-12.257813 15.078125 15.078125c10.664063 10.664062 22.234375 20.605469 34.386719 29.546875l8.890625-12.082031c-11.546875-8.492188-22.539063-17.9375-32.671875-28.070313l-15.074219-15.078125 5.6875-5.691406-62.761719-62.761719-5.6875 5.691407-18.667968-18.664063-33.488282 33.496094 18.664063 18.664062-5.691406 5.6875 11.425781 11.425781c-25.441406 23.03125-61.214844 31.851563-94.582031 23.011719l-9.417969-2.492187v9.742187c0 32.847657 12.789062 63.726563 36.011719 86.953125 23.226562 23.222656 54.105469 36.011719 86.953125 36.011719h7.5l-.007813-48.167969c-9.367187.003906-24.644531.90625-42.71875-8.777344zm67.597657-66.15625-41.550782-41.550781 23.664063-23.660156 41.550781 41.550781zm-54.523438-65.902343 12.28125-12.28125 8.058594 8.058593-12.28125 12.277344zm-54.195312 142.386719c-18.15625-18.160157-29.050782-41.652344-31.21875-66.945313 35.59375 6.1875 72.472656-4.519531 99.21875-29.046875l18.785156 18.785156-69.28125 69.285156c9.238281 6.488282 24.753906 18.886719 51.339844 21.070313l.003906 18.214844c-26.019532-1.769531-50.230469-12.75-68.847656-31.363281zm0 0"/><path d="m312.429688 416.207031-5.230469 14.058594c13.089843 4.867187 26.613281 8.839844 40.28125 11.84375v45.148437c-23.824219-12.792968-47.136719-26.9375-69.449219-42.132812l-8.445312 12.394531c26.214843 17.855469 53.789062 34.285157 81.953124 48.828125l10.941407 5.648438v-82.144532l-6.042969-1.195312c-14.9375-2.957031-29.746094-7.148438-44.007812-12.449219zm0 0"/><path d="m149.15625 181.683594c6.445312-37.238282 32.367188-68.949219 67.644531-82.753906l-5.464843-13.96875c-40.136719 15.707031-69.625 51.789062-76.960938 94.164062zm0 0"/><path d="m363.828125 181.683594 14.777344-2.558594c-7.335938-42.375-36.824219-78.457031-76.957031-94.164062l-5.464844 13.96875c35.277344 13.808593 61.195312 45.515624 67.644531 82.753906zm0 0"/><path d="m124.90625 157.542969 8.527344-12.335938c-42.785156-29.574219-64.371094-79.523437-59.398438-128.699219 3.828125 1.929688 6.667969 5.554688 7.445313 9.984376 7.347656 41.890624 37.832031 73.980468 75.472656 85.570312l4.414063-14.335938c-32.464844-9.996093-58.773438-37.695312-65.113282-73.824218-2.429687-13.851563-14.460937-23.902344-28.605468-23.902344h-6.398438l-1.007812 6.320312c-9.128907 57.339844 14.867187 116.804688 64.664062 151.222657zm0 0"/><path d="m431.5 26.492188c.777344-4.433594 3.617188-8.054688 7.445312-9.984376 4.976563 49.191407-16.621093 99.132813-59.398437 128.699219l8.527344 12.335938c49.835937-34.445313 73.789062-93.929688 64.667969-151.222657l-1.007813-6.320312h-6.398437c-14.148438 0-26.179688 10.050781-28.609376 23.902344-6.320312 36.039062-32.566406 63.804687-65.109374 73.824218l4.410156 14.335938c37.613281-11.574219 68.121094-43.648438 75.472656-85.570312zm0 0"/><path d="m337.230469 177.460938c-1.542969-5.417969-3.644531-10.707032-6.253907-15.71875l13.304688-6.921876c3.074219 5.910157 5.558594 12.144532 7.375 18.527344zm-10.925781-23.617188c-2.542969-3.8125-5.414063-7.441406-8.542969-10.789062l10.960937-10.238282c3.683594 3.941406 7.066406 8.214844 10.058594 12.699219zm-15.164063-17.144531c-3.476563-2.992188-7.21875-5.714844-11.125-8.089844l7.796875-12.816406c4.605469 2.800781 9.015625 6.011719 13.113281 9.535156zm0 0" fill="#fff"/><path d="m379.925781 137.550781-8.957031-12.03125c4.605469-3.429687 9.015625-7.242187 13.109375-11.335937 5.894531-5.898438 11.179687-12.453125 15.707031-19.488282l12.613282 8.113282c-5.101563 7.933594-11.0625 15.328125-17.714844 21.980468-4.605469 4.605469-9.570313 8.898438-14.757813 12.761719zm0 0" fill="#fff"/><path d="m475.292969 389.691406c-19.90625-.226562-39.082031-4.46875-56.996094-12.601562l6.203125-13.65625c16.003906 7.265625 33.152344 11.054687 50.964844 11.257812zm0 0" fill="#fff"/></svg>