<svg height="512pt" viewBox="-81 0 512 512" width="512pt" xmlns="http://www.w3.org/2000/svg"><path d="m175.058594 0c-51.507813 0-85.503906 54.847656-85.503906 54.847656v48.703125h171.007812v-48.703125s-33.996094-54.847656-85.503906-54.847656zm0 0" fill="#e15f76"/><path d="m12.113281 512c0-89.992188 72.953125-162.945312 162.945313-162.945312 89.992187 0 162.949218 72.953124 162.949218 162.945312zm0 0" fill="#5c626b"/><path d="m175.058594 349.054688c-89.992188 0-162.945313 72.953124-162.945313 162.945312h162.945313zm0 0" fill="#535860"/><path d="m175.058594 347.582031h-60.964844v33.28125c0 2.175781 1.222656 4.160157 3.167969 5.140625 7.554687 3.804688 28.234375 12.613282 57.796875 12.613282s50.242187-8.808594 57.796875-12.613282c1.945312-.980468 3.167969-2.964844 3.167969-5.140625v-33.28125zm0 0" fill="#535860"/><path d="m117.261719 386.003906c7.554687 3.804688 28.234375 12.613282 57.796875 12.613282v-51.035157h-60.964844v33.28125c0 2.175781 1.222656 4.160157 3.167969 5.140625zm0 0" fill="#3f444c"/><path d="m350.117188 200.691406c0 96.679688-78.375 175.058594-175.058594 175.058594-96.679688 0-175.058594-78.378906-175.058594-175.058594 0-96.683594 78.378906-175.058594 175.058594-175.058594 96.683594 0 175.058594 78.375 175.058594 175.058594zm0 0" fill="#5c626b"/><path d="m30.90625 200.691406c0-91.472656 70.164062-166.546875 159.605469-174.371094-5.09375-.445312-10.246094-.6875-15.453125-.6875-96.683594 0-175.058594 78.375-175.058594 175.058594 0 96.679688 78.378906 175.058594 175.058594 175.058594 5.207031 0 10.359375-.242188 15.453125-.6875-89.441407-7.824219-159.605469-82.898438-159.605469-174.371094zm0 0" fill="#535860"/><path d="m348.882812 179.90625c-10.277343-86.882812-84.175781-154.273438-173.824218-154.273438-89.648438 0-163.542969 67.390626-173.824219 154.273438 1.039063.339844 2.105469.632812 3.207031.828125l166.546875 29.511719c1.339844.238281 2.710938.359375 4.070313.359375 1.363281 0 2.730468-.121094 4.070312-.359375l166.546875-29.511719c1.105469-.195313 2.167969-.484375 3.207031-.828125zm0 0" fill="#535860"/><path d="m236.117188 278.625h-122.117188c-27.535156 0-49.855469-22.320312-49.855469-49.855469 0-27.535156 22.320313-49.859375 49.855469-49.859375h122.117188c27.535156 0 49.859374 22.324219 49.859374 49.859375 0 27.53125-22.324218 49.855469-49.859374 49.855469zm0 0" fill="#fbc4ac"/><path d="m84.746094 228.769531c0-27.535156 22.320312-49.859375 49.855468-49.859375h-20.601562c-27.535156 0-49.855469 22.324219-49.855469 49.859375 0 27.535157 22.320313 49.855469 49.855469 49.855469h20.601562c-27.535156 0-49.855468-22.324219-49.855468-49.855469zm0 0" fill="#e3b098"/><path d="m236.117188 178.910156h-122.117188c-13.933594 0-26.523438 5.722656-35.570312 14.9375l92.558593 16.398438c1.339844.238281 2.710938.359375 4.070313.359375 1.363281 0 2.730468-.121094 4.070312-.359375l92.558594-16.398438c-9.046875-9.214844-21.636719-14.9375-35.570312-14.9375zm0 0" fill="#e3b098"/><path d="m7.136719 78.679688 166.550781-29.511719c.90625-.160157 1.835938-.160157 2.742188 0l166.550781 29.511719c3.753906.664062 6.492187 3.929687 6.492187 7.742187v71.355469c0 3.8125-2.738281 7.078125-6.492187 7.742187l-166.550781 29.511719c-.90625.160156-1.835938.160156-2.742188 0l-166.550781-29.511719c-3.753907-.664062-6.488281-3.929687-6.488281-7.742187v-71.355469c0-3.8125 2.734374-7.078125 6.488281-7.742187zm0 0" fill="#5c626b"/><path d="m175.058594 257.195312c-9.78125 0-18.886719-5.269531-23.765625-13.757812-2.066407-3.589844-.828125-8.175781 2.761719-10.238281 3.59375-2.066407 8.175781-.828125 10.242187 2.765625 2.210937 3.84375 6.335937 6.230468 10.761719 6.230468 4.429687 0 8.550781-2.386718 10.761718-6.230468 2.066407-3.59375 6.648438-4.832032 10.242188-2.765625 3.589844 2.0625 4.828125 6.648437 2.761719 10.238281-4.878907 8.488281-13.984375 13.757812-23.765625 13.757812zm0 0" fill="#3f444c"/><path d="m240.671875 227.035156c-4.144531 0-7.5-3.355468-7.5-7.5v-11.695312c0-4.144532 3.355469-7.5 7.5-7.5 4.140625 0 7.5 3.355468 7.5 7.5v11.695312c0 4.144532-3.359375 7.5-7.5 7.5zm0 0" fill="#3f444c"/><path d="m109.449219 227.035156c-4.144531 0-7.5-3.355468-7.5-7.5v-11.695312c0-4.144532 3.355469-7.5 7.5-7.5 4.140625 0 7.5 3.355468 7.5 7.5v11.695312c0 4.144532-3.359375 7.5-7.5 7.5zm0 0" fill="#3f444c"/><path d="m246.519531 249.148438h-11.699219c-4.140624 0-7.5-3.355469-7.5-7.5 0-4.140626 3.359376-7.5 7.5-7.5h11.699219c4.144531 0 7.5 3.359374 7.5 7.5 0 4.144531-3.355469 7.5-7.5 7.5zm0 0" fill="#e15f76"/><path d="m115.296875 249.148438h-11.699219c-4.144531 0-7.5-3.355469-7.5-7.5 0-4.140626 3.355469-7.5 7.5-7.5h11.699219c4.140625 0 7.5 3.359374 7.5 7.5 0 4.144531-3.359375 7.5-7.5 7.5zm0 0" fill="#e15f76"/><g fill="#3f444c"><path d="m46.800781 151.640625c-4.140625 0-7.5-3.359375-7.5-7.5v-40.324219c0-4.140625 3.359375-7.5 7.5-7.5 4.144531 0 7.5 3.359375 7.5 7.5v40.324219c0 4.140625-3.355469 7.5-7.5 7.5zm0 0"/><path d="m89.554688 161.941406c-4.144532 0-7.5-3.359375-7.5-7.5v-60.925781c0-4.144531 3.355468-7.5 7.5-7.5 4.140624 0 7.5 3.355469 7.5 7.5v60.925781c0 4.140625-3.359376 7.5-7.5 7.5zm0 0"/><path d="m132.308594 172.242188c-4.144532 0-7.5-3.355469-7.5-7.5v-81.527344c0-4.144532 3.355468-7.5 7.5-7.5 4.140625 0 7.5 3.355468 7.5 7.5v81.527344c0 4.144531-3.359375 7.5-7.5 7.5zm0 0"/><path d="m175.058594 182.542969c-4.144532 0-7.5-3.355469-7.5-7.5v-102.132813c0-4.140625 3.355468-7.5 7.5-7.5 4.144531 0 7.5 3.359375 7.5 7.5v102.132813c0 4.144531-3.355469 7.5-7.5 7.5zm0 0"/><path d="m217.8125 172.242188c-4.144531 0-7.5-3.355469-7.5-7.5v-81.527344c0-4.144532 3.355469-7.5 7.5-7.5 4.140625 0 7.5 3.355468 7.5 7.5v81.527344c0 4.144531-3.359375 7.5-7.5 7.5zm0 0"/><path d="m260.5625 161.941406c-4.140625 0-7.5-3.359375-7.5-7.5v-60.925781c0-4.144531 3.359375-7.5 7.5-7.5 4.144531 0 7.5 3.355469 7.5 7.5v60.925781c0 4.140625-3.355469 7.5-7.5 7.5zm0 0"/><path d="m303.316406 151.640625c-4.144531 0-7.5-3.359375-7.5-7.5v-40.324219c0-4.140625 3.355469-7.5 7.5-7.5 4.144532 0 7.5 3.359375 7.5 7.5v40.324219c0 4.140625-3.359375 7.5-7.5 7.5zm0 0"/></g></svg>